<svg width="56" height="64" viewBox="0 0 56 64" fill="none" xmlns="http://www.w3.org/2000/svg">
<path d="M20.1093 34.2905H36.086L43.0156 64.0002H11.5435L20.1093 34.2905Z" fill="url(#paint0_linear_2301_621)"/>
<mask id="mask0_2301_621" style="mask-type:alpha" maskUnits="userSpaceOnUse" x="9" y="4" width="38" height="28">
<path fill-rule="evenodd" clip-rule="evenodd" d="M10.8873 28.9779C10.2415 27.0884 9.89062 25.0588 9.89062 22.9461C9.89062 12.7907 17.9979 4.55804 27.9986 4.55804C37.9994 4.55804 46.1066 12.7907 46.1066 22.9461C46.1066 25.0589 45.7557 27.0884 45.1099 28.9779C40.1473 30.7425 34.2824 31.7624 27.9987 31.7624C21.7149 31.7624 15.8499 30.7425 10.8873 28.9779Z" fill="url(#paint1_radial_2301_621)"/>
</mask>
<g mask="url(#mask0_2301_621)">
<g opacity="0.18">
<path opacity="0.18" d="M75.4151 18.8069L22.1387 15.816L22.1294 15.9812L75.4058 18.9721L75.4151 18.8069Z" fill="white"/>
</g>
<path d="M27.5013 26.7272C29.5772 26.8437 31.2957 26.3015 31.3398 25.516C31.3839 24.7305 29.7368 23.9993 27.661 23.8828C25.5852 23.7663 23.8666 24.3085 23.8225 25.094C23.7784 25.8794 25.4255 26.6106 27.5013 26.7272Z" fill="#EDEDF4"/>
<path opacity="0.15" d="M28.1068 26.646C28.1068 26.646 24.4982 26.6182 24.3296 25.0478C24.2636 24.31 25.9874 23.9733 27.8208 23.9214C25.7243 23.8565 24.0371 24.2882 24.0082 25.0625C23.9793 25.8368 25.5574 26.5375 27.6905 26.6973C27.7854 26.6607 27.8804 26.6242 28.1068 26.646Z" fill="#73737F"/>
<path d="M27.5435 26.3445C29.395 26.4485 30.9265 25.987 30.9643 25.3137C31.0021 24.6405 29.5318 24.0104 27.6804 23.9065C25.829 23.8026 24.2975 24.2641 24.2597 24.9373C24.2219 25.6106 25.6921 26.2406 27.5435 26.3445Z" fill="white"/>
<path d="M27.5572 26.3366C29.4086 26.4405 30.9402 25.979 30.9779 25.3057C31.0157 24.6325 29.5455 24.0025 27.6941 23.8985C25.8427 23.7946 24.3112 24.2561 24.2734 24.9293C24.2356 25.6026 25.7058 26.2326 27.5572 26.3366Z" fill="#BCBCCC"/>
<path d="M27.551 26.3048C29.3464 26.4056 30.8298 25.987 30.8645 25.3698C30.8991 24.7527 29.4718 24.1707 27.6765 24.0699C25.8812 23.9691 24.3977 24.3877 24.363 25.0049C24.3284 25.622 25.7557 26.204 27.551 26.3048Z" fill="#73737F"/>
<path d="M25.5478 24.2511C25.5478 24.2511 26.1541 24.1267 26.5486 24.3018C26.0591 24.1632 25.5478 24.2511 25.5478 24.2511Z" fill="#8F8F99"/>
<path d="M29.7791 24.4758C29.7791 24.4758 29.1946 24.3738 28.7783 24.4251C29.2896 24.3372 29.7791 24.4758 29.7791 24.4758Z" fill="#8F8F99"/>
<path opacity="0.15" d="M27.7837 23.8265C29.179 24.0524 30.1362 24.556 30.1291 25.1039C30.0636 25.7833 28.6978 26.2002 26.9227 26.1205C26.2433 26.0551 25.5639 25.9896 25.0379 25.756C25.6005 26.0845 26.5429 26.2668 27.5437 26.3175C29.4137 26.3606 30.9111 26.002 30.94 25.2277C31.0054 24.5483 29.5954 24.0011 27.7837 23.8265Z" fill="#73737F"/>
<path d="M29.0943 23.2305L26.25 23.0711L26.1532 24.798L28.9975 24.9574L29.0943 23.2305Z" fill="#73737F"/>
<g opacity="0.15">
<path opacity="0.15" d="M27.9964 24.9441C28.0914 24.9075 28.1863 24.871 28.3178 24.9294C28.3178 24.9294 28.2229 24.9659 27.9964 24.9441Z" fill="#73737F"/>
</g>
<path d="M27.6696 23.5548C28.455 23.5989 29.102 23.4527 29.1146 23.2283C29.1272 23.0039 28.5006 22.7862 27.7152 22.7421C26.9297 22.698 26.2828 22.8442 26.2702 23.0686C26.2576 23.293 26.8841 23.5107 27.6696 23.5548Z" fill="#8F8F99"/>
<path d="M27.7043 23.4373C28.4337 23.4782 29.0326 23.375 29.042 23.2067C29.0515 23.0384 28.4679 22.8687 27.7386 22.8278C27.0092 22.7868 26.4103 22.8901 26.4009 23.0584C26.3914 23.2267 26.975 23.3963 27.7043 23.4373Z" fill="#73737F"/>
<path d="M28.9077 23.0665L29.1253 19.3847L26.6419 20.0139L26.4897 23.0163L26.5045 23.3377C26.6726 23.491 27.162 23.6296 27.7099 23.6367C28.2578 23.6438 28.6741 23.5925 28.9589 23.4828L28.9077 23.0665Z" fill="#69DDAE"/>
<path d="M27.2277 21.533C27.2277 21.533 29.1715 23.1831 31.3771 22.1158C33.6193 21.1433 35.6197 18.4105 35.3326 12.8517C34.9505 7.32938 27.2722 4.94379 24.031 10.1169C20.2861 16.2471 27.2277 21.533 27.2277 21.533Z" fill="#75F1C1"/>
<path d="M35.2681 14.9483C35.0286 18.8564 33.3201 20.9316 31.4577 21.7578C29.3104 22.6937 27.4032 21.1385 27.4032 21.1385C27.4032 21.1385 20.5931 15.9111 24.2212 10.0438C25.5133 8.01989 27.4707 7.15716 29.3773 7.29518C27.3757 7.19372 25.2869 7.99807 23.9364 10.1535C20.1549 16.1888 27.1332 21.5697 27.1332 21.5697C27.1332 21.5697 29.0769 23.2198 31.2825 22.1524C33.2399 21.2897 35.1382 19.1413 35.2681 14.9483Z" fill="#69DDAE"/>
<path opacity="0.42" d="M26.7852 18.093C27.4023 19.0322 28.4736 19.4184 29.178 18.9556C29.8824 18.4928 29.9532 17.3562 29.3361 16.417C28.719 15.4778 27.6477 15.0916 26.9433 15.5545C26.2389 16.0173 26.1682 17.1538 26.7852 18.093Z" fill="#A7A9CA"/>
<path opacity="0.42" d="M31.9439 19.163C32.5922 19.7016 33.7 19.4376 34.4183 18.5732C35.1365 17.7088 35.1932 16.5714 34.5449 16.0327C33.8966 15.4941 32.7888 15.7581 32.0706 16.6225C31.3524 17.4869 31.2957 18.6243 31.9439 19.163Z" fill="#A7A9CA"/>
<path d="M27.0274 18.1078C27.6445 19.047 28.7158 19.4331 29.4202 18.9703C30.1246 18.5075 30.1954 17.371 29.5783 16.4318C28.9612 15.4926 27.8899 15.1064 27.1855 15.5692C26.4811 16.032 26.4104 17.1686 27.0274 18.1078Z" fill="white"/>
<path opacity="0.16" d="M29.9805 17.6386C29.9369 18.0915 29.7617 18.486 29.5134 18.6907C28.9219 19.1365 28.0014 18.7278 27.4824 17.9464C26.9635 17.165 27.0142 16.1643 27.6057 15.7184C28.1972 15.2726 29.1178 15.6813 29.6367 16.4627C29.7098 16.6526 29.8779 16.8059 29.8561 17.0324C29.783 16.8425 29.6733 16.5576 29.5052 16.4043C28.9131 15.433 27.8027 15.0974 27.1162 15.5798C26.4298 16.0622 26.3207 17.1945 26.9127 18.1658C27.5048 19.1371 28.6153 19.4727 29.3017 18.9903C29.8348 18.6759 29.9734 18.1865 29.9805 17.6386Z" fill="#A7A9CA"/>
<path d="M32.2057 19.1626C32.854 19.7013 33.9617 19.4372 34.68 18.5728C35.3982 17.7085 35.4549 16.5711 34.8066 16.0324C34.1584 15.4937 33.0506 15.7577 32.3323 16.6221C31.6141 17.4865 31.5574 18.6239 32.2057 19.1626Z" fill="white"/>
<path d="M27.2033 14.6738C27.2033 14.6738 27.6999 14.2645 28.8905 14.2421C30.0812 14.2197 29.0215 12.8834 27.6557 13.3003C26.4213 13.7756 26.6118 15.1196 27.2033 14.6738Z" fill="#3CAF8E"/>
<path d="M35.3039 15.0433C35.3039 15.0433 34.9896 14.5102 33.9375 14.0431C32.8489 13.4811 34.4264 12.7646 35.4348 13.6846C36.4433 14.6046 35.6548 15.6714 35.3039 15.0433Z" fill="#3CAF8E"/>
<path opacity="0.42" d="M27.0648 13.7462C27.0648 13.7462 26.4149 14.3235 26.6343 14.8932C26.8537 15.4629 27.3573 14.5057 28.4896 14.6149C29.4904 14.6656 29.629 14.1761 29.3512 13.7379C29.3512 13.7379 29.4609 14.0228 28.9496 14.1107C28.4017 14.1036 27.664 14.1696 27.2258 14.4474C26.7876 14.7251 26.8165 13.9508 27.0648 13.7462Z" fill="#A7A9CA"/>
<path opacity="0.42" d="M34.3831 13.2173C34.3831 13.2173 34.0617 13.2321 33.9449 13.4951C33.8282 13.7581 34.8437 14.1303 35.253 14.6268C35.5307 15.065 35.7937 15.1818 35.8156 14.9553C35.8156 14.9553 35.7353 15.3132 35.4139 15.328L35.2824 15.2696L35.319 15.3645C35.319 15.3645 35.0047 14.8314 33.9891 14.4593C33.032 13.9556 33.2508 13.1082 34.3831 13.2173Z" fill="#A7A9CA"/>
<path opacity="0.16" d="M32.6473 18.9014C32.0482 18.4779 32.0989 17.4772 32.7706 16.6734C33.3474 15.9061 34.37 15.7304 34.9692 16.1538C35.1007 16.2122 35.1372 16.3071 35.1738 16.4021C35.1007 16.2122 35.0276 16.0223 34.7645 15.9056C34.1288 15.3872 33.0112 15.5994 32.2811 16.5347C31.5145 17.3751 31.5369 18.5658 32.1726 19.0842C32.8083 19.6026 33.8309 19.4268 34.5392 18.718C33.8528 19.2004 33.1516 19.3614 32.6473 18.9014Z" fill="#A7A9CA"/>
<path d="M30.8729 20.2386C30.325 20.2315 29.799 19.998 29.5725 19.9762L29.536 19.8812L29.6309 19.8447C29.8574 19.8665 30.4784 20.0635 31.0262 20.0706C31.0262 20.0706 31.1577 20.1289 31.0628 20.1655C31.0628 20.1655 31.0044 20.297 30.9678 20.2021C31.0994 20.2604 30.9678 20.2021 30.8729 20.2386Z" fill="#3CAF8E"/>
<path d="M30.7645 25.6223C30.5599 25.374 30.107 25.3303 29.7124 25.1552C29.3545 25.0749 28.9599 24.8998 28.9234 24.8049C28.8868 24.7099 28.8721 24.3885 28.8208 23.9722C28.806 23.6508 28.9228 23.3877 28.9228 23.3877C28.9228 23.3877 28.7771 24.4251 28.8868 24.7099C28.9599 24.8998 29.3179 24.98 29.6759 25.0602C30.1653 25.1988 30.5599 25.374 30.7645 25.6223Z" fill="#8F8F99"/>
<path d="M29.1503 26.2439C29.1721 26.0174 28.7994 25.6157 28.4632 25.3091C28.2586 25.0608 28.0906 24.9075 28.054 24.8125C27.9443 24.5277 28.09 23.4903 28.09 23.4903C28.09 23.4903 27.9443 24.5277 28.054 24.8125C28.0906 24.9075 28.2586 25.0608 28.4632 25.3091C28.7994 25.6157 29.1721 26.0174 29.1503 26.2439Z" fill="#8F8F99"/>
<path d="M25.4327 25.9312C25.6078 25.5367 26.141 25.2224 26.6157 25.0396C26.8056 24.9665 26.9955 24.8933 27.0539 24.7618C27.2072 24.5937 27.0898 23.4396 27.0898 23.4396C27.0898 23.4396 27.1122 24.6303 26.9589 24.7984C26.864 24.8349 26.7106 25.003 26.5207 25.0762C26.141 25.2224 25.6078 25.5367 25.4327 25.9312Z" fill="#8F8F99"/>
<path d="M24.4825 24.8797C24.5993 24.6167 25.337 24.5507 25.8849 24.5578C26.1114 24.5796 26.3962 24.4699 26.3962 24.4699C26.4546 24.3384 26.4835 23.5641 26.4688 23.2427C26.4688 23.2427 26.4835 23.5641 26.4617 23.7905C26.4033 23.9221 26.4546 24.3384 26.3962 24.4699C26.3962 24.4699 26.2063 24.543 25.8849 24.5578C25.3736 24.6456 24.6358 24.7117 24.4825 24.8797Z" fill="#8F8F99"/>
<path d="M27.5798 24.9955C27.4848 25.032 27.3533 24.9736 27.2584 25.0102C26.9004 24.9299 26.6374 24.8132 26.6374 24.8132C26.6374 24.8132 26.9004 24.9299 27.2584 25.0102C27.6163 25.0904 28.1642 25.0975 28.6973 24.7832C28.3176 24.9294 27.9012 24.9807 27.5798 24.9955Z" fill="#8F8F99"/>
<path opacity="0.15" d="M27.7697 24.9224C27.6382 24.864 27.6017 24.769 27.5651 24.6741L27.6376 23.4468C26.8633 23.4179 26.2423 23.221 26.2642 22.9945L26.2718 23.8638C25.5341 23.9298 24.9644 24.1491 24.6211 24.3903C24.7526 24.4487 24.6943 24.5802 24.5993 24.6168C24.8476 24.4122 25.3223 24.2294 25.9286 24.1049C25.3223 24.2294 24.7526 24.4487 24.5044 24.6534C24.5044 24.6534 25.1324 24.3025 26.2063 24.5431C26.2358 25.1859 27.0685 25.0833 27.032 24.9884C26.9954 24.8934 26.8273 24.7401 27.2219 24.9153C27.4483 24.9371 27.6748 24.9589 27.9012 24.9807C27.9012 24.9807 27.9012 24.9807 27.7697 24.9224ZM26.0601 24.1634C25.9652 24.1999 25.9652 24.1999 26.0601 24.1634C25.9652 24.1999 25.9652 24.1999 26.0601 24.1634ZM26.25 24.0902C26.1551 24.1268 26.155 24.1268 26.0601 24.1634C26.0601 24.1634 26.1551 24.1268 26.25 24.0902Z" fill="#73737F"/>
<path d="M19.0799 34.9187C19.0139 34.1809 18.4731 33.626 17.8303 33.6555L11.8769 33.7674L11.8633 36.2803L17.8532 36.2632C18.591 36.1972 19.1094 35.5615 19.0799 34.9187Z" fill="#D5D5E0"/>
<path d="M37.1008 35.284L33.4812 25.8842C33.2252 25.2195 32.4362 24.8692 31.7715 25.1252C31.1069 25.3811 30.7566 26.1702 31.0125 26.8348L34.6322 36.2346C34.8881 36.8993 35.6772 37.2496 36.3418 36.9936C37.1014 36.7012 37.3568 35.9487 37.1008 35.284Z" fill="#D5D5E0"/>
<path d="M31.8086 25.2203C32.4733 24.9643 33.2623 25.3146 33.5183 25.9793L34.0301 27.3085L32.278 29.8367L31.1446 26.8933C30.8521 26.1337 31.144 25.4762 31.8086 25.2203Z" fill="#BCBCCC"/>
<path d="M35.1728 36.7897C34.5736 36.3663 34.471 35.5336 34.931 35.0294L38.545 30.2579L40.5471 31.7765L37.0646 36.6064C36.6046 37.1106 35.7719 37.2132 35.1728 36.7897Z" fill="#D5D5E0"/>
<path d="M35.4365 36.9063C35.4365 36.9063 35.3415 36.9428 35.3049 36.8479L35.4365 36.9063C35.568 36.9647 35.9478 36.8184 36.5027 36.2777C36.9043 35.905 37.4227 35.2692 37.9995 34.502C38.9997 33.1356 39.7734 31.7474 39.7734 31.7474C39.7734 31.7474 38.9047 33.1721 37.9995 34.502C37.4227 35.2692 36.9043 35.905 36.5027 36.2777C36.0427 36.7819 35.6629 36.9281 35.4365 36.9063Z" fill="#EDEDF4"/>
<path opacity="0.15" d="M35.9119 36.7237C35.7438 36.5704 35.6707 36.3805 35.6925 36.154C35.6777 35.8326 35.6996 35.6061 35.9113 35.3065L39.277 30.7397L38.5097 30.1629L35.4507 34.3936L32.6496 25.987C31.9484 26.148 31.5834 26.6156 31.3864 27.2366L34.8232 36.1617C35.0426 36.7314 35.7001 37.0233 36.3064 36.8989C36.4013 36.8623 36.4963 36.8257 36.6862 36.7526C36.3064 36.8989 36.0799 36.8771 35.9119 36.7237Z" fill="#73737F"/>
<path d="M23.2177 24.7125C22.5601 24.4205 21.764 24.618 21.472 25.2756L16.8225 34.1528C16.5305 34.8103 16.7281 35.6065 17.3856 35.8984C18.0432 36.1903 18.8393 35.9928 19.1313 35.3353L23.7809 26.4581C24.0728 25.8005 23.8752 25.0044 23.2177 24.7125Z" fill="#D5D5E0"/>
<path d="M23.2177 24.7125C22.5601 24.4205 21.764 24.618 21.472 25.2756L20.8516 26.4958L22.3283 29.1979L23.7809 26.4581C24.0728 25.8005 23.8752 25.0044 23.2177 24.7125Z" fill="#BCBCCC"/>
<path opacity="0.15" d="M23.218 24.7124C22.6554 24.384 21.8958 24.6764 21.5673 25.239L17.0563 33.6268L11.7457 33.7092L11.8849 34.6369L12.3891 35.0969L16.8304 35.022C16.8304 35.022 17.7946 34.9778 18.415 33.7577L18.4734 33.6262L20.9551 28.7456C21.3419 28.0515 22.2843 28.2337 22.4453 28.9349L22.4819 29.0298L23.9344 26.2899C24.073 25.8005 23.8755 25.0044 23.218 24.7124Z" fill="#73737F"/>
<path d="M28.0456 23.9433L27.6876 23.8631L27.4977 23.9362L27.0448 23.8925L23.0935 25.5231L22.328 29.1977L22.4635 39.176L26.5981 39.4373L26.8246 39.4592L30.8277 39.6621L32.1459 29.7782L31.7791 25.9944L28.0456 23.9433Z" fill="#D5D5E0"/>
<path opacity="0.15" d="M32.043 28.9456C31.4875 28.0693 30.4791 27.1492 29.1056 26.6969C29.6169 26.609 30.0333 26.5578 30.4714 26.28C31.3844 25.8194 31.3914 25.2715 30.9822 24.775L28.0453 23.9434L27.5924 23.8998L27.3659 23.8779L26.913 23.8343L22.1798 24.5667L22.3683 39.2127L24.3699 39.3142L23.7591 28.1016C24.6136 27.7725 25.8261 27.5237 27.2432 27.5231C29.6977 27.6682 31.159 28.6318 31.9994 29.3985L31.9628 29.3036L32.043 28.9456ZM23.788 27.3272C23.788 27.3272 23.6635 26.721 24.3647 26.56C24.5546 26.4869 24.9126 26.5671 25.3655 26.6108C24.7593 26.7352 24.1896 26.9545 23.788 27.3272Z" fill="#73737F"/>
<path d="M28.0469 23.9434L27.594 23.8997L27.3675 23.8779L27.2726 23.9144L26.9512 23.9292L22.2179 24.6616L22.2344 29.2344C22.2344 29.2344 23.4316 27.247 27.2082 27.4281C30.9265 27.7407 31.9573 29.8514 31.9573 29.8514L32.4887 25.2857L28.0469 23.9434Z" fill="#BCBCCC"/>
<path opacity="0.15" d="M23.6281 28.043L23.5986 27.4003C23.5986 27.4003 23.6275 26.6259 24.3653 26.5599C25.0665 26.3989 28.3613 27.3107 30.472 26.2799C31.3849 25.8193 31.392 25.2714 30.9827 24.7749L28.0459 23.9433L27.5929 23.8997L27.3665 23.8778L27.2715 23.9144L26.9501 23.9291L22.2169 24.6615L22.2334 29.2343C22.3283 29.1978 22.7517 28.5986 23.6281 28.043Z" fill="#73737F"/>
<path opacity="0.15" d="M27.36 27.26C23.5834 27.0789 22.3278 29.1978 22.3278 29.1978C22.3278 29.1978 23.6199 27.1739 27.36 27.26C31.1149 27.6676 32.1091 29.6833 32.1091 29.6833C32.1091 29.6833 31.1732 27.5361 27.36 27.26Z" fill="#73737F"/>
<path d="M27.4994 26.7273C29.5752 26.8438 31.2937 26.3016 31.3378 25.5161C31.3819 24.7307 29.7349 23.9995 27.659 23.8829C25.5832 23.7664 23.8646 24.3086 23.8205 25.0941C23.7765 25.8796 25.4235 26.6108 27.4994 26.7273Z" fill="#EDEDF4"/>
<path opacity="0.15" d="M28.1049 26.646C28.1049 26.646 24.4963 26.6182 24.3276 25.0478C24.2616 24.31 25.9854 23.9733 27.8189 23.9214C25.7224 23.8565 24.0352 24.2882 24.0062 25.0625C23.9773 25.8368 25.5555 26.5375 27.6885 26.6973C27.7835 26.6607 27.8784 26.6242 28.1049 26.646Z" fill="#73737F"/>
<path d="M27.5416 26.3445C29.393 26.4485 30.9245 25.987 30.9623 25.3137C31.0001 24.6405 29.5299 24.0104 27.6785 23.9065C25.827 23.8026 24.2955 24.2641 24.2577 24.9373C24.2199 25.6106 25.6902 26.2406 27.5416 26.3445Z" fill="white"/>
<path d="M27.5572 26.3366C29.4086 26.4405 30.9402 25.979 30.9779 25.3057C31.0157 24.6325 29.5455 24.0025 27.6941 23.8985C25.8427 23.7946 24.3112 24.2561 24.2734 24.9293C24.2356 25.6026 25.7058 26.2326 27.5572 26.3366Z" fill="#BCBCCC"/>
<path d="M27.551 26.3048C29.3464 26.4056 30.8298 25.987 30.8645 25.3698C30.8991 24.7527 29.4718 24.1707 27.6765 24.0699C25.8812 23.9691 24.3977 24.3877 24.363 25.0049C24.3284 25.622 25.7557 26.204 27.551 26.3048Z" fill="#73737F"/>
<path d="M25.5478 24.2511C25.5478 24.2511 26.1541 24.1267 26.5486 24.3018C26.0591 24.1632 25.5478 24.2511 25.5478 24.2511Z" fill="#8F8F99"/>
<path d="M29.7771 24.4758C29.7771 24.4758 29.1927 24.3738 28.7763 24.4251C29.2876 24.3372 29.7771 24.4758 29.7771 24.4758Z" fill="#8F8F99"/>
<path opacity="0.15" d="M27.7837 23.8265C29.179 24.0524 30.1362 24.556 30.1291 25.1039C30.0636 25.7833 28.6978 26.2002 26.9227 26.1205C26.2433 26.0551 25.5639 25.9896 25.0379 25.756C25.6005 26.0845 26.5429 26.2668 27.5437 26.3175C29.4137 26.3606 30.9111 26.002 30.94 25.2277C31.0054 24.5483 29.5954 24.0011 27.7837 23.8265Z" fill="#73737F"/>
<path d="M29.0943 23.2305L26.25 23.0711L26.1532 24.798L28.9975 24.9574L29.0943 23.2305Z" fill="#73737F"/>
<g opacity="0.15">
<path opacity="0.15" d="M27.9964 24.9441C28.0914 24.9075 28.1863 24.871 28.3178 24.9294C28.3178 24.9294 28.2229 24.9659 27.9964 24.9441Z" fill="#73737F"/>
</g>
<path d="M27.6696 23.5548C28.455 23.5989 29.102 23.4527 29.1146 23.2283C29.1272 23.0039 28.5006 22.7862 27.7152 22.7421C26.9297 22.698 26.2828 22.8442 26.2702 23.0686C26.2576 23.293 26.8841 23.5107 27.6696 23.5548Z" fill="#8F8F99"/>
<path d="M27.7043 23.4373C28.4337 23.4782 29.0326 23.375 29.042 23.2067C29.0515 23.0384 28.4679 22.8687 27.7386 22.8278C27.0092 22.7868 26.4103 22.8901 26.4009 23.0584C26.3914 23.2267 26.975 23.3963 27.7043 23.4373Z" fill="#73737F"/>
<path d="M28.9077 23.0665L29.1253 19.3847L26.6419 20.0139L26.4897 23.0163L26.5045 23.3377C26.6726 23.491 27.162 23.6296 27.7099 23.6367C28.2578 23.6438 28.6741 23.5925 28.9589 23.4828L28.9077 23.0665Z" fill="#69DDAE"/>
<path d="M27.2277 21.5331C27.2277 21.5331 29.1715 23.1832 31.3771 22.1158C33.6193 21.1434 35.6197 18.4105 35.3326 12.8517C34.9505 7.32941 27.2722 4.94382 24.031 10.1169C20.2861 16.2471 27.2277 21.5331 27.2277 21.5331Z" fill="#75F1C1"/>
<path d="M35.2681 14.9483C35.0286 18.8565 33.3201 20.9317 31.4577 21.7579C29.3104 22.6937 27.4032 21.1386 27.4032 21.1386C27.4032 21.1386 20.5931 15.9111 24.2212 10.0439C25.5133 8.01992 27.4707 7.15719 29.3773 7.29521C27.3757 7.19375 25.2869 7.9981 23.9364 10.1536C20.1549 16.1888 27.1332 21.5697 27.1332 21.5697C27.1332 21.5697 29.0769 23.2198 31.2825 22.1524C33.2399 21.2897 35.1382 19.1413 35.2681 14.9483Z" fill="#69DDAE"/>
<path opacity="0.42" d="M26.7852 18.0931C27.4023 19.0323 28.4736 19.4184 29.178 18.9556C29.8824 18.4928 29.9532 17.3562 29.3361 16.4171C28.719 15.4779 27.6477 15.0917 26.9433 15.5545C26.2389 16.0173 26.1682 17.1539 26.7852 18.0931Z" fill="#A7A9CA"/>
<path opacity="0.42" d="M31.9439 19.163C32.5922 19.7017 33.7 19.4376 34.4183 18.5732C35.1365 17.7089 35.1932 16.5714 34.5449 16.0328C33.8966 15.4941 32.7888 15.7581 32.0706 16.6225C31.3524 17.4869 31.2957 18.6243 31.9439 19.163Z" fill="#A7A9CA"/>
<path d="M27.0274 18.1078C27.6445 19.047 28.7158 19.4332 29.4202 18.9704C30.1246 18.5075 30.1954 17.371 29.5783 16.4318C28.9612 15.4926 27.8899 15.1064 27.1855 15.5692C26.4811 16.032 26.4104 17.1686 27.0274 18.1078Z" fill="white"/>
<path opacity="0.16" d="M29.9805 17.6386C29.9369 18.0916 29.7617 18.4861 29.5134 18.6907C28.9219 19.1365 28.0014 18.7279 27.4824 17.9465C26.9635 17.1651 27.0142 16.1643 27.6057 15.7185C28.1972 15.2726 29.1178 15.6813 29.6367 16.4627C29.7098 16.6526 29.8779 16.806 29.8561 17.0324C29.783 16.8425 29.6733 16.5577 29.5052 16.4043C28.9131 15.433 27.8027 15.0975 27.1162 15.5798C26.4298 16.0622 26.3207 17.1945 26.9127 18.1658C27.5048 19.1371 28.6153 19.4727 29.3017 18.9903C29.8348 18.676 29.9734 18.1865 29.9805 17.6386Z" fill="#A7A9CA"/>
<path d="M32.2057 19.1626C32.854 19.7013 33.9617 19.4373 34.68 18.5729C35.3982 17.7085 35.4549 16.5711 34.8066 16.0324C34.1584 15.4937 33.0506 15.7578 32.3323 16.6221C31.6141 17.4865 31.5574 18.6239 32.2057 19.1626Z" fill="white"/>
<path d="M27.2033 14.6738C27.2033 14.6738 27.6999 14.2646 28.8905 14.2422C30.0812 14.2198 29.0215 12.8834 27.6557 13.3004C26.4213 13.7757 26.6118 15.1197 27.2033 14.6738Z" fill="#3CAF8E"/>
<path d="M35.3039 15.0433C35.3039 15.0433 34.9896 14.5102 33.9375 14.0432C32.8489 13.4811 34.4264 12.7646 35.4348 13.6846C36.4433 14.6046 35.6548 15.6714 35.3039 15.0433Z" fill="#3CAF8E"/>
<path opacity="0.42" d="M27.0648 13.7462C27.0648 13.7462 26.4149 14.3235 26.6343 14.8932C26.8537 15.4629 27.3573 14.5058 28.4896 14.6149C29.4904 14.6656 29.629 14.1761 29.3512 13.738C29.3512 13.738 29.4609 14.0228 28.9496 14.1107C28.4017 14.1036 27.664 14.1696 27.2258 14.4474C26.7876 14.7251 26.8165 13.9508 27.0648 13.7462Z" fill="#A7A9CA"/>
<path opacity="0.42" d="M34.3831 13.2173C34.3831 13.2173 34.0617 13.2321 33.9449 13.4951C33.8282 13.7581 34.8437 14.1303 35.253 14.6268C35.5307 15.065 35.7937 15.1818 35.8156 14.9553C35.8156 14.9553 35.7353 15.3133 35.4139 15.328L35.2824 15.2696L35.319 15.3646C35.319 15.3646 35.0047 14.8314 33.9891 14.4593C33.032 13.9557 33.2508 13.1082 34.3831 13.2173Z" fill="#A7A9CA"/>
<path opacity="0.16" d="M32.6473 18.9014C32.0482 18.478 32.0989 17.4772 32.7706 16.6734C33.3474 15.9062 34.37 15.7304 34.9692 16.1539C35.1007 16.2122 35.1372 16.3072 35.1738 16.4021C35.1007 16.2122 35.0276 16.0224 34.7645 15.9056C34.1288 15.3872 33.0112 15.5994 32.2811 16.5347C31.5145 17.3751 31.5369 18.5658 32.1726 19.0842C32.8083 19.6026 33.8309 19.4269 34.5392 18.718C33.8528 19.2004 33.1516 19.3614 32.6473 18.9014Z" fill="#A7A9CA"/>
<path d="M30.8729 20.2387C30.325 20.2316 29.799 19.998 29.5725 19.9762L29.536 19.8813L29.6309 19.8447C29.8574 19.8665 30.4784 20.0635 31.0262 20.0706C31.0262 20.0706 31.1577 20.129 31.0628 20.1655C31.0628 20.1655 31.0044 20.297 30.9678 20.2021C31.0994 20.2605 30.9678 20.2021 30.8729 20.2387Z" fill="#3CAF8E"/>
<path d="M30.7645 25.6223C30.5599 25.374 30.107 25.3303 29.7124 25.1552C29.3545 25.0749 28.9599 24.8998 28.9234 24.8049C28.8868 24.7099 28.8721 24.3885 28.8208 23.9722C28.806 23.6508 28.9228 23.3877 28.9228 23.3877C28.9228 23.3877 28.7771 24.4251 28.8868 24.7099C28.9599 24.8998 29.3179 24.98 29.6759 25.0602C30.1653 25.1988 30.5599 25.374 30.7645 25.6223Z" fill="#8F8F99"/>
<path d="M29.1503 26.2439C29.1721 26.0174 28.7994 25.6157 28.4632 25.3091C28.2586 25.0608 28.0906 24.9075 28.054 24.8125C27.9443 24.5277 28.09 23.4903 28.09 23.4903C28.09 23.4903 27.9443 24.5277 28.054 24.8125C28.0906 24.9075 28.2586 25.0608 28.4632 25.3091C28.7994 25.6157 29.1721 26.0174 29.1503 26.2439Z" fill="#8F8F99"/>
<path d="M25.4327 25.9312C25.6078 25.5367 26.141 25.2224 26.6157 25.0396C26.8056 24.9665 26.9955 24.8933 27.0539 24.7618C27.2072 24.5937 27.0898 23.4396 27.0898 23.4396C27.0898 23.4396 27.1122 24.6303 26.9589 24.7984C26.864 24.8349 26.7106 25.003 26.5207 25.0762C26.141 25.2224 25.6078 25.5367 25.4327 25.9312Z" fill="#8F8F99"/>
<path d="M24.4825 24.8797C24.5993 24.6167 25.337 24.5507 25.8849 24.5578C26.1114 24.5796 26.3962 24.4699 26.3962 24.4699C26.4546 24.3384 26.4835 23.5641 26.4688 23.2427C26.4688 23.2427 26.4835 23.5641 26.4617 23.7905C26.4033 23.9221 26.4546 24.3384 26.3962 24.4699C26.3962 24.4699 26.2063 24.543 25.8849 24.5578C25.3736 24.6456 24.6358 24.7117 24.4825 24.8797Z" fill="#8F8F99"/>
<path d="M27.5798 24.9955C27.4848 25.032 27.3533 24.9736 27.2584 25.0102C26.9004 24.9299 26.6374 24.8132 26.6374 24.8132C26.6374 24.8132 26.9004 24.9299 27.2584 25.0102C27.6163 25.0904 28.1642 25.0975 28.6973 24.7832C28.3176 24.9294 27.9012 24.9807 27.5798 24.9955Z" fill="#8F8F99"/>
<path d="M39.201 31.4048C39.7432 31.8057 40.3181 31.9475 40.4851 31.7216C40.6522 31.4957 40.3481 30.9876 39.8059 30.5867C39.2638 30.1858 38.6888 30.0439 38.5217 30.2698C38.3547 30.4957 38.6588 31.0039 39.201 31.4048Z" fill="#EDEDF4"/>
<path d="M39.2793 31.3297C39.7763 31.6972 40.2875 31.8486 40.4211 31.6679C40.5548 31.4871 40.2602 31.0427 39.7632 30.6752C39.2662 30.3077 38.7549 30.1562 38.6213 30.337C38.4877 30.5177 38.7823 30.9622 39.2793 31.3297Z" fill="#BCBCCC"/>
<path d="M40.8604 30.8924L39.3259 29.7389L38.8075 30.3745L38.6542 30.5426C38.7273 30.7325 38.9685 31.0758 39.3996 31.3459C39.7357 31.6525 40.0937 31.7328 40.3202 31.7546L40.4369 31.4916L40.8604 30.8924Z" fill="#73737F"/>
<path opacity="0.15" d="M39.4593 31.2144C39.3131 30.8347 39.7731 30.3305 39.7731 30.3305L39.963 30.2574L39.2323 29.7755L38.7139 30.4112L38.5606 30.5793C38.6337 30.7692 38.8749 31.1124 39.306 31.3825C39.6421 31.6892 40.0001 31.7694 40.2266 31.7913L40.3433 31.5282C40.0585 31.6379 39.569 31.4993 39.4593 31.2144Z" fill="#73737F"/>
<path d="M39.8575 30.6042C40.3093 30.9383 40.7568 31.0992 40.8571 30.9637C40.9573 30.8282 40.6723 30.4474 40.2204 30.1133C39.7686 29.7792 39.3211 29.6183 39.2209 29.7538C39.1206 29.8894 39.4057 30.2701 39.8575 30.6042Z" fill="#8F8F99"/>
<path d="M38.6913 30.6377C39.0346 30.3965 39.3047 29.9654 39.3047 29.9654C39.2097 30.002 38.9762 30.528 38.6913 30.6377Z" fill="#8F8F99"/>
<path d="M38.9328 30.9809C39.1811 30.7763 39.4512 30.3452 39.4512 30.3452C39.4512 30.3452 39.3928 30.4767 39.2395 30.6448C39.2395 30.6448 39.0861 30.8129 38.9328 30.9809Z" fill="#8F8F99"/>
<path d="M39.2687 31.2876C39.2687 31.2876 39.6922 30.6885 39.7871 30.6519C39.7287 30.7834 39.2687 31.2876 39.2687 31.2876Z" fill="#8F8F99"/>
<path d="M39.8307 31.6162C39.8307 31.6162 40.1008 31.1851 40.3125 30.8855C40.0642 31.0901 39.8307 31.6162 39.8307 31.6162Z" fill="#8F8F99"/>
<path d="M40.1901 31.6962C40.1901 31.6962 40.3652 31.3017 40.6719 30.9656C40.3652 31.3017 40.1901 31.6962 40.1901 31.6962Z" fill="#8F8F99"/>
<path d="M41.3054 30.0668L40.3553 29.0153L39.4206 29.7023C39.3622 29.8339 39.6034 30.177 39.9395 30.4837C40.2757 30.7904 40.7286 30.8341 40.8236 30.7975L41.3054 30.0668Z" fill="#75F1C1"/>
<path d="M41.0432 29.95C39.7505 30.5568 39.1218 29.4905 39.0192 28.6578C38.9532 27.9201 38.5003 27.8765 38.1494 27.2484C37.7985 26.6203 38.4997 26.4593 38.4997 26.4593C39.7854 26.4004 40.0489 27.9343 40.0489 27.9343C40.0489 27.9343 40.6611 24.4277 42.3631 24.3175C44.0651 24.2072 44.6353 25.405 43.9123 25.7924C43.2843 26.1433 42.2174 25.3548 42.2174 25.3548C42.2174 25.3548 41.4437 26.743 41.4879 27.7072C41.4879 27.7072 42.0428 27.1665 42.7004 27.4584C43.4894 27.8087 44.0526 29.5543 43.0595 30.3728C42.1613 31.1548 41.2113 30.1033 42.4892 29.1751C42.4892 29.1751 42.3648 28.5689 42.1602 28.3206C42.4232 28.4374 42.1831 30.9284 41.0432 29.95Z" fill="#75F1C1"/>
<path d="M42.7451 29.8396C42.9568 29.5401 43.3584 29.1673 43.0806 28.7292C42.8394 28.3859 42.518 28.4007 42.518 28.4007C42.6861 28.554 42.8471 29.2552 42.8471 29.2552C41.6641 30.1469 42.3511 31.0816 43.1691 30.6576C42.7527 30.7089 42.38 30.3073 42.7451 29.8396Z" fill="#69DDAE"/>
<path d="M39.4946 28.4753C39.3554 27.5476 38.4714 27.2339 38.705 26.7078C38.7634 26.5763 38.9532 26.5032 39.0482 26.4666C38.9167 26.4082 38.6902 26.3865 38.5953 26.423C38.5953 26.423 37.8941 26.584 38.245 27.2121C38.5959 27.8401 39.0488 27.8837 39.1148 28.6215C39.1808 29.3593 39.8461 30.5205 41.0438 29.9502C39.9846 30.031 39.5388 29.4395 39.4946 28.4753Z" fill="#69DDAE"/>
<path d="M41.9988 24.7851C42.5319 24.4708 42.9483 24.4195 43.4012 24.4632C43.1382 24.3464 42.8168 24.3612 42.4954 24.3759C40.8884 24.4496 40.1665 27.6713 40.1446 27.8977C40.1446 27.8977 41.0275 25.3772 41.9988 24.7851Z" fill="#69DDAE"/>
<path d="M40.9476 29.9867C40.9476 29.9867 40.911 29.8917 40.9476 29.9867C41.2761 29.4241 41.1004 28.4014 41.1004 28.4014C41.1004 28.4014 41.1004 28.4014 41.1953 28.3649C41.1953 28.3649 41.1953 28.3649 41.2319 28.4599C41.2319 28.4599 41.2466 28.7812 41.2614 29.1026C41.1811 29.4606 41.1593 29.6871 40.9476 29.9867Z" fill="#3CAF8E"/>
<path d="M27.4353 28.867L27.2891 28.4872L25.9385 30.6426L26.3549 30.5913L27.4353 28.867Z" fill="white"/>
<path d="M27.1647 30.7153L28.3919 30.7879L27.5439 29.1519L27.5074 29.057L26.4853 30.6498L26.9017 30.5985L27.5368 29.6998L27.7928 30.3644L27.3399 30.3208L27.1647 30.7153Z" fill="white"/>
<path d="M27.3262 28.5822L25.9391 30.6427L26.3554 30.5914L27.4359 28.867L27.3262 28.5822Z" fill="#BCBCCC"/>
<path d="M27.1653 30.7152L28.3925 30.7878L27.5445 29.1518L26.4859 30.6497L26.9022 30.5984L27.5374 29.6997L27.7933 30.3643L27.3404 30.3207L27.1653 30.7152Z" fill="#BCBCCC"/>
<path d="M27.2312 28.6188L26.034 30.6061L26.2605 30.628L27.4359 28.867L27.2312 28.6188Z" fill="white"/>
<path d="M26.5808 30.6132L27.5445 29.1518L28.3559 30.6928L27.1653 30.7152L27.377 30.4156L27.9248 30.4227L27.5374 29.6997L26.9022 30.5984L26.5808 30.6132Z" fill="white"/>
<path d="M11.2192 33.4756C11.2192 33.4756 10.495 31.0287 9.53024 29.6558C8.56545 28.2829 7.18488 28.3784 6.9879 28.9994C6.79092 29.6204 7.79937 30.5404 8.71228 30.0799C8.71228 30.0799 9.48716 31.5259 9.48773 32.943C9.48773 32.943 7.70442 30.577 6.43354 30.9574C5.16266 31.3377 5.68926 32.9884 6.83571 32.0018C6.83571 32.0018 7.71972 32.3155 8.02696 33.3965C8.33419 34.4775 8.26164 35.7047 9.1309 35.6971C9.35736 35.7189 9.41575 35.5874 9.70059 35.4777C9.86866 35.631 10.0002 35.6894 10.3216 35.6747C10.8329 35.5868 10.9715 35.0974 11.6579 34.615C12.1327 34.4322 12.5856 34.4758 13.0385 34.5194C14.4338 34.7453 12.6358 32.0579 11.2192 33.4756Z" fill="#75F1C1"/>
<path d="M12.0523 33.3729C11.1246 33.5121 10.7961 34.0746 10.7961 34.0746C10.7961 34.0746 10.3645 32.3874 9.57485 30.62C8.78522 28.8525 7.44829 28.4951 7.15636 29.1527C7.03959 29.4157 7.07616 29.5106 7.14928 29.7005C7.48543 30.0072 8.01146 30.2407 8.58115 30.0214C8.58115 30.0214 9.35605 31.4674 9.35662 32.8845C9.35662 32.8845 9.35663 32.8846 9.32006 32.7896C9.32006 32.7896 7.79267 31.0882 6.69695 31.074C6.14909 31.067 5.86423 31.1766 5.61595 31.3812C5.28746 31.9438 5.90137 32.6887 6.79955 31.9067C6.79955 31.9067 7.68356 32.2205 7.99079 33.3015C8.2249 34.1926 8.17417 35.1933 8.73677 35.5218C9.18969 35.5655 9.55473 35.0978 10.0808 35.3314C10.4387 35.4116 10.782 35.1704 11.2201 34.8926C11.2785 34.7611 11.4684 34.688 11.6218 34.5199C11.9066 34.4102 12.228 34.3955 12.5494 34.3808C13.6451 34.3949 13.1115 33.2921 12.0523 33.3729Z" fill="#69DDAE"/>
<path opacity="0.15" d="M27.7697 24.9224C27.6382 24.864 27.6017 24.769 27.5651 24.6741L27.6376 23.4468C26.8633 23.4179 26.2423 23.221 26.2642 22.9945L26.2718 23.8638C25.5341 23.9298 24.9644 24.1491 24.6211 24.3903C24.7526 24.4487 24.6943 24.5802 24.5993 24.6168C24.8476 24.4122 25.3223 24.2294 25.9286 24.1049C25.3223 24.2294 24.7526 24.4487 24.5044 24.6534C24.5044 24.6534 25.1324 24.3025 26.2063 24.5431C26.2358 25.1859 27.0685 25.0833 27.032 24.9884C26.9954 24.8934 26.8273 24.7401 27.2219 24.9153C27.4483 24.9371 27.6748 24.9589 27.9012 24.9807C27.9012 24.9807 27.9012 24.9807 27.7697 24.9224ZM26.0601 24.1634C25.9652 24.1999 25.9652 24.1999 26.0601 24.1634C25.9652 24.1999 25.9652 24.1999 26.0601 24.1634ZM26.25 24.0902C26.1551 24.1268 26.155 24.1268 26.0601 24.1634C26.0601 24.1634 26.1551 24.1268 26.25 24.0902Z" fill="#73737F"/>
<path opacity="0.15" d="M24.7997 32.4986C24.9007 32.7608 25.1951 32.8915 25.4573 32.7905C25.7195 32.6895 25.8502 32.3951 25.7492 32.1329C25.6483 31.8708 25.3539 31.7401 25.0917 31.841C24.8295 31.942 24.6988 32.2364 24.7997 32.4986Z" fill="#73737F"/>
<path d="M24.9902 32.4257C25.0709 32.6355 25.3065 32.74 25.5162 32.6593C25.726 32.5785 25.8305 32.343 25.7498 32.1332C25.669 31.9235 25.4335 31.8189 25.2237 31.8997C25.014 31.9805 24.9094 32.2159 24.9902 32.4257Z" fill="#EDEDF4"/>
<path opacity="0.15" d="M22.4228 29.1612L22.3633 26.4585L22.3349 28.6499C22.2471 28.1386 21.9841 28.0219 21.9841 28.0219C21.8891 28.0584 22.3202 28.3285 22.4228 29.1612C22.3279 29.1978 22.3279 29.1978 22.4228 29.1612C22.3279 29.1978 22.3279 29.1978 22.4228 29.1612C22.3279 29.1978 22.4228 29.1612 22.4228 29.1612Z" fill="#73737F"/>
<path d="M12.1702 35.9442L16.838 35.8913C16.838 35.8913 17.1594 35.8765 17.5757 35.8252C17.9921 35.7739 18.4668 35.5911 18.7953 35.0285C19.4305 34.1297 22.0366 29.8554 22 29.7604C22 29.7604 19.4305 34.1297 18.7953 35.0285C18.5836 35.328 18.2769 35.6642 17.5757 35.8252C17.1594 35.8765 16.838 35.8913 16.838 35.8913L12.1702 35.9442Z" fill="#EDEDF4"/>
<path d="M22.502 24.5517C22.5386 24.6467 22.5386 24.6467 22.6701 24.7051L23.1814 24.6172C23.1814 24.6172 23.2763 24.5807 23.2398 24.4857C23.2032 24.3908 23.2032 24.3907 23.1082 24.4273L22.597 24.5152C22.4654 24.4568 22.4071 24.5883 22.502 24.5517Z" fill="#EDEDF4"/>
<path d="M32.5468 25.1541C32.4885 25.2856 32.4884 25.2856 32.3569 25.2272L31.8675 25.0886L31.8309 24.9937C31.7943 24.8987 31.8893 24.8622 31.9259 24.9571L32.4153 25.0957C32.6052 25.0226 32.6418 25.1175 32.5468 25.1541Z" fill="#EDEDF4"/>
<path opacity="0.19" d="M48.6997 29.7278L35.5657 29.8791C35.4708 29.9157 35.4342 29.8207 35.3977 29.7258L36.1521 16.6791C36.1156 16.5842 36.2105 16.5476 36.3055 16.5111L49.3669 17.5869C49.4618 17.5503 49.4984 17.6453 49.44 17.7768L48.7581 29.5963C48.7947 29.6912 48.6997 29.7278 48.6997 29.7278Z" fill="white"/>
<path opacity="0.27" d="M49.4768 17.8718L36.1889 16.7741L36.2107 16.5477C36.1742 16.4527 36.2691 16.4162 36.3641 16.3796L49.4255 17.4555C49.5204 17.4189 49.557 17.5139 49.4986 17.6454L49.4768 17.8718Z" fill="white"/>
<path opacity="0.05" d="M48.0776 29.5307L43.2783 29.5254L43.9602 17.7059L48.8108 18.1277L48.136 29.3992C48.2675 29.4576 48.1725 29.4941 48.0776 29.5307Z" fill="white"/>
<path opacity="0.05" d="M47.1851 26.9305L44.7672 26.8803C44.3508 26.9316 44.0731 26.4934 44.1533 26.1355L44.545 19.225C44.5886 18.7721 44.9319 18.5309 45.2533 18.5162L47.8392 18.7196C48.1972 18.7998 48.5334 19.1065 48.4531 19.4645L48.0467 26.0536C47.9081 26.5431 47.6015 26.8792 47.1851 26.9305Z" fill="white"/>
<path opacity="0.29" d="M46.8365 27.7197L44.1922 27.6477C44.1922 27.6477 44.1922 27.6477 44.1556 27.5528L44.2506 27.5162L46.8949 27.5882C46.8584 27.4933 46.8949 27.5882 46.8365 27.7197C46.9315 27.6831 46.8365 27.7197 46.8365 27.7197Z" fill="white"/>
<g opacity="0.46">
<path opacity="0.29" d="M46.0176 28.1434L44.1476 28.1003L46.0176 28.1434C45.9811 28.0484 45.9811 28.0484 46.0176 28.1434Z" fill="white"/>
<path opacity="0.29" d="M45.6733 28.3848L44.1246 28.327L45.6733 28.3848C45.6367 28.2899 45.7317 28.2533 45.6733 28.3848Z" fill="white"/>
<path opacity="0.29" d="M46.3326 28.6767L44.0462 28.6849L46.3326 28.6767C46.391 28.5452 46.391 28.5452 46.3326 28.6767C46.4276 28.6401 46.3326 28.6767 46.3326 28.6767Z" fill="white"/>
<path opacity="0.29" d="M46.3092 28.9031L44.0228 28.9113L46.3092 28.9031C46.3676 28.7716 46.3676 28.7716 46.3092 28.9031C46.4041 28.8666 46.3092 28.9031 46.3092 28.9031Z" fill="white"/>
</g>
<g opacity="0.27">
<path opacity="0.27" d="M36.9709 17.6723L38.746 17.752C38.841 17.7154 38.841 17.7155 38.8994 17.584C38.8628 17.489 38.8628 17.489 38.7313 17.4306L36.9562 17.351C36.8613 17.3875 36.8612 17.3875 36.8029 17.519C36.8394 17.614 36.8394 17.614 36.9709 17.6723Z" fill="white"/>
<path opacity="0.27" d="M37.3146 21.6824C37.3511 21.7774 37.3511 21.7774 37.4827 21.8358L39.2578 21.9154C39.3527 21.8789 39.3527 21.8789 39.4111 21.7474C39.3745 21.6524 39.3745 21.6524 39.243 21.594L37.373 21.5509C37.373 21.5509 37.278 21.5875 37.3146 21.6824Z" fill="white"/>
<path opacity="0.27" d="M40.0382 18.5624L38.3581 18.4462C38.2631 18.4828 38.2631 18.4828 38.2047 18.6143C38.2413 18.7092 38.2413 18.7092 38.3728 18.7676L40.053 18.8838C40.1479 18.8473 40.1479 18.8473 40.1114 18.7523C40.1332 18.5259 40.1332 18.5259 40.0382 18.5624Z" fill="white"/>
<path opacity="0.27" d="M38.228 19.8048L39.9082 19.921C40.0031 19.8845 40.0031 19.8844 40.0615 19.7529C40.0249 19.658 40.0249 19.658 39.8934 19.5996L38.2133 19.4834C38.1183 19.52 38.1183 19.52 38.0599 19.6515C38.0965 19.7464 38.133 19.8414 38.228 19.8048Z" fill="white"/>
<path opacity="0.27" d="M41.1636 20.6361C41.127 20.5411 41.127 20.5412 41.0321 20.5777L39.3519 20.4615C39.257 20.4981 39.257 20.4981 39.1986 20.6296C39.2352 20.7245 39.2352 20.7245 39.3667 20.7829L41.0468 20.8991C41.1052 20.7676 41.2001 20.731 41.1636 20.6361Z" fill="white"/>
<path opacity="0.27" d="M40.4477 19.0588C40.4111 18.9638 40.4111 18.9638 40.2796 18.9054L38.278 18.804C38.1831 18.8406 38.1831 18.8406 38.1247 18.9721C38.1613 19.067 38.1612 19.067 38.2928 19.1254L40.2943 19.2269C40.3893 19.1903 40.3893 19.1903 40.4477 19.0588Z" fill="white"/>
<path opacity="0.27" d="M38.2337 19.2568C38.1387 19.2934 38.1387 19.2934 38.0803 19.4249C38.1169 19.5198 38.1169 19.5198 38.2484 19.5782L39.4756 19.6508C39.5706 19.6142 39.5706 19.6142 39.629 19.4827C39.5924 19.3878 39.5924 19.3878 39.4609 19.3294L38.2337 19.2568Z" fill="white"/>
<path opacity="0.27" d="M37.4027 22.1938L38.6299 22.2663C38.7249 22.2298 38.7249 22.2298 38.7833 22.0983C38.7467 22.0034 38.7467 22.0033 38.6152 21.945L37.388 21.8724C37.293 21.909 37.293 21.909 37.2347 22.0405C37.2712 22.1355 37.2712 22.1354 37.4027 22.1938Z" fill="white"/>
<path opacity="0.27" d="M39.1025 17.8322L39.5554 17.8759C39.6504 17.8393 39.6503 17.8393 39.7087 17.7078C39.6722 17.6128 39.6722 17.6128 39.5407 17.5544L39.0878 17.5108C38.9928 17.5474 38.9928 17.5474 38.9344 17.6789C38.971 17.7738 38.971 17.7738 39.1025 17.8322Z" fill="white"/>
<path opacity="0.27" d="M39.9142 17.9558L40.3672 17.9995C40.4621 17.9629 40.4621 17.9629 40.4256 17.868C40.389 17.773 40.389 17.773 40.2575 17.7146L39.8046 17.671C39.7096 17.7075 39.7096 17.7076 39.7462 17.8025C39.8777 17.8609 39.8777 17.8609 39.9142 17.9558Z" fill="white"/>
<path opacity="0.27" d="M41.7114 17.8093L40.8056 17.722C40.7107 17.7586 40.7107 17.7585 40.7472 17.8535C40.7838 17.9484 40.7838 17.9484 40.9153 18.0068L41.8211 18.0942C41.9161 18.0576 41.9161 18.0576 41.8795 17.9626C41.843 17.8677 41.8064 17.7727 41.7114 17.8093Z" fill="white"/>
<path opacity="0.27" d="M42.0109 18.0209L42.2374 18.0427C42.3323 18.0062 42.3323 18.0062 42.2958 17.9113C42.2592 17.8163 42.2592 17.8163 42.1643 17.8528L41.9378 17.831C41.8429 17.8676 41.8429 17.8676 41.8794 17.9625C41.916 18.0575 42.0109 18.0209 42.0109 18.0209Z" fill="white"/>
<path opacity="0.27" d="M36.7522 21.3539L38.5273 21.4336C38.6222 21.397 38.6222 21.397 38.6806 21.2655C38.6441 21.1706 38.6441 21.1705 38.5126 21.1122L36.7375 21.0325C36.6425 21.0691 36.6425 21.0691 36.5841 21.2006C36.5257 21.3321 36.6572 21.3905 36.7522 21.3539Z" fill="white"/>
<path opacity="0.27" d="M38.8865 21.5139L39.4343 21.521C39.5293 21.4845 39.5293 21.4844 39.5876 21.3529C39.5511 21.258 39.5511 21.258 39.4196 21.1996L38.8717 21.1925C38.7768 21.2291 38.7768 21.2291 38.7184 21.3606C38.7549 21.4555 38.7549 21.4556 38.8865 21.5139Z" fill="white"/>
<path opacity="0.27" d="M38.2291 22.6388C38.1342 22.6754 38.1342 22.6754 38.0758 22.8069C38.1124 22.9019 38.1124 22.9018 38.2439 22.9602L38.7917 22.9673C38.8867 22.9307 38.8867 22.9308 38.9451 22.7992C38.9085 22.7043 38.9085 22.7043 38.777 22.6459L38.2291 22.6388Z" fill="white"/>
<path opacity="0.27" d="M38.2589 23.2819L39.2597 23.3326C39.3546 23.2961 39.3546 23.2961 39.413 23.1646C39.4714 23.0331 39.3764 23.0696 39.2815 23.1061L38.2807 23.0554C38.1858 23.092 38.1858 23.092 38.1274 23.2235C38.1274 23.2235 38.164 23.3185 38.2589 23.2819Z" fill="white"/>
<path opacity="0.27" d="M41.5509 21.3593L40.6816 21.3669L40.5866 21.4035L39.6808 21.3162C39.5859 21.3527 39.5859 21.3528 39.5275 21.4843C39.5641 21.5792 39.5641 21.5792 39.6956 21.6376L40.6014 21.7249L40.6963 21.6883L41.5656 21.6807C41.6605 21.6441 41.6606 21.6441 41.624 21.5492C41.5874 21.4542 41.5874 21.4542 41.5509 21.3593Z" fill="white"/>
<path opacity="0.27" d="M42.0998 21.3663L41.8734 21.3445C41.7784 21.3811 41.7784 21.381 41.815 21.476C41.8515 21.5709 41.8515 21.5709 41.9465 21.5343L42.1729 21.5562C42.2679 21.5196 42.2679 21.5196 42.2313 21.4247C42.1364 21.4612 42.1364 21.4612 42.0998 21.3663Z" fill="white"/>
<path opacity="0.27" d="M39.629 18.0655C39.6655 18.1604 39.6655 18.1604 39.7971 18.2188L40.25 18.2625C40.3449 18.2259 40.3449 18.226 40.3084 18.131C40.2718 18.0361 40.2718 18.036 40.1403 17.9777L39.6874 17.934C39.629 18.0655 39.629 18.0655 39.629 18.0655Z" fill="white"/>
<path opacity="0.27" d="M39.849 20.0524L39.3961 20.0088C39.3011 20.0453 39.3012 20.0454 39.2428 20.1769C39.2793 20.2718 39.2793 20.2718 39.4108 20.3302L39.8637 20.3738C39.9587 20.3373 39.9587 20.3373 40.0171 20.2058C40.0755 20.0743 39.944 20.0159 39.849 20.0524Z" fill="white"/>
<path opacity="0.27" d="M38.7603 18.0732C38.7969 18.1682 38.7969 18.1682 38.9284 18.2266L39.3813 18.2703C39.4763 18.2337 39.4763 18.2337 39.5346 18.1021C39.593 17.9706 39.4981 18.0072 39.3666 17.9489L38.9137 17.9052C38.8187 17.9418 38.7238 17.9783 38.7603 18.0732Z" fill="white"/>
<path opacity="0.27" d="M38.4595 17.8615L37.5537 17.7742C37.4587 17.8107 37.4587 17.8108 37.4004 17.9423C37.342 18.0738 37.4369 18.0372 37.5684 18.0956L38.4742 18.1829C38.5692 18.1463 38.5692 18.1463 38.6276 18.0148C38.4961 17.9564 38.4961 17.9564 38.4595 17.8615Z" fill="white"/>
<path opacity="0.27" d="M36.89 18.0302L37.1165 18.0521C37.2115 18.0155 37.2115 18.0155 37.2698 17.884C37.2333 17.789 37.2333 17.7891 37.1018 17.7307L36.8753 17.7088C36.7804 17.7454 36.7804 17.7454 36.722 17.8769C36.6636 18.0084 36.7951 18.0668 36.89 18.0302Z" fill="white"/>
<path opacity="0.27" d="M40.6898 20.8192C40.5948 20.8557 40.5948 20.8557 40.6314 20.9506C40.6679 21.0456 40.6679 21.0456 40.7629 21.0091L40.9893 21.0309C41.0843 20.9943 41.0843 20.9943 41.0477 20.8994C41.0112 20.8044 41.0112 20.8044 40.9162 20.841L40.6898 20.8192Z" fill="white"/>
<path opacity="0.27" d="M39.3613 22.7481L39.1348 22.7263C39.0399 22.7629 39.0399 22.7629 38.9815 22.8944C39.018 22.9893 39.018 22.9893 39.1495 23.0477L39.376 23.0695C39.4709 23.033 39.471 23.033 39.5293 22.9015C39.5877 22.77 39.4562 22.7116 39.3613 22.7481Z" fill="white"/>
<path opacity="0.27" d="M38.1925 22.5441L38.419 22.5659C38.5139 22.5293 38.5139 22.5293 38.5723 22.3978C38.6307 22.2663 38.5357 22.3029 38.4042 22.2445L38.1778 22.2227C38.0828 22.2592 38.0828 22.2592 38.0244 22.3907C38.1559 22.4491 38.1925 22.5441 38.1925 22.5441Z" fill="white"/>
<path opacity="0.27" d="M36.5705 23.7132L38.3456 23.7929C38.4406 23.7563 38.4406 23.7563 38.499 23.6248C38.4624 23.5298 38.4624 23.5298 38.3309 23.4714L36.5558 23.3918C36.4609 23.4284 36.4609 23.4284 36.4025 23.5599C36.3441 23.6914 36.534 23.6183 36.5705 23.7132Z" fill="white"/>
<path opacity="0.27" d="M38.9766 27.6937C38.9401 27.5987 38.9401 27.5987 38.8451 27.6352L37.1066 27.6506C37.0116 27.6871 37.0116 27.6871 36.9533 27.8186C36.9898 27.9136 36.9898 27.9136 37.0848 27.877L38.8233 27.8617C38.8817 27.7302 38.9766 27.6937 38.9766 27.6937Z" fill="white"/>
<path opacity="0.27" d="M37.8272 24.4286C37.8638 24.5236 37.8638 24.5236 37.9953 24.582L39.7704 24.6616C39.8653 24.6251 39.8653 24.625 39.9237 24.4935C39.9821 24.362 39.8872 24.3986 39.7922 24.4352L38.0171 24.3555C37.8856 24.2971 37.8272 24.4286 37.8272 24.4286Z" fill="white"/>
<path opacity="0.27" d="M37.9224 25.8094L39.6609 25.7942C39.7559 25.7576 39.7559 25.7576 39.8142 25.6261C39.8726 25.4945 39.7777 25.5311 39.6827 25.5677L37.9442 25.583C37.8493 25.6196 37.8493 25.6196 37.7909 25.7511C37.7325 25.8826 37.7909 25.751 37.9224 25.8094Z" fill="white"/>
<path opacity="0.27" d="M40.8809 26.4146C40.8444 26.3196 40.8444 26.3196 40.7494 26.3562L39.1058 26.3349C39.0109 26.3715 39.0109 26.3715 38.9525 26.503C38.9891 26.5979 38.9891 26.598 39.084 26.5614L40.7276 26.5826C40.8225 26.5461 40.8226 26.5461 40.8809 26.4146Z" fill="white"/>
<path opacity="0.27" d="M40.1064 24.9687C40.0698 24.8737 40.0698 24.8737 39.9749 24.9103L37.9733 24.8088C37.8784 24.8454 37.8784 24.8454 37.82 24.9769C37.8566 25.0718 37.8566 25.0719 37.9881 25.1302L39.9896 25.2317C40.0114 25.0052 40.1064 24.9687 40.1064 24.9687Z" fill="white"/>
<path opacity="0.27" d="M37.8938 25.1666C37.7989 25.2032 37.7989 25.2032 37.7405 25.3347C37.777 25.4296 37.7771 25.4297 37.872 25.3931L39.0992 25.4656C39.1942 25.4291 39.1942 25.429 39.2526 25.2975C39.216 25.2026 39.216 25.2026 39.1211 25.2392L37.8938 25.1666Z" fill="white"/>
<path opacity="0.27" d="M38.4426 28.0079C38.406 27.913 38.406 27.913 38.3111 27.9495L37.1204 27.9719C37.0254 28.0085 37.0255 28.0085 36.9671 28.14C36.9087 28.2715 37.0036 28.2349 37.0986 28.1984L38.2893 28.176C38.3842 28.1395 38.3476 28.0445 38.4426 28.0079Z" fill="white"/>
<path opacity="0.27" d="M39.236 23.5588L38.6881 23.5517C38.5932 23.5883 38.5932 23.5883 38.5348 23.7198C38.5714 23.8148 38.5714 23.8147 38.7029 23.8731L39.2507 23.8802C39.3457 23.8436 39.3457 23.8437 39.4041 23.7122C39.3675 23.6172 39.3309 23.5222 39.236 23.5588Z" fill="white"/>
<path opacity="0.27" d="M40.1071 23.5514L39.6542 23.5077C39.5592 23.5443 39.5592 23.5443 39.5008 23.6758C39.5374 23.7708 39.5374 23.7707 39.6323 23.7342L40.0853 23.7778C40.1802 23.7413 40.1802 23.7413 40.2386 23.6098C40.2386 23.6098 40.202 23.5148 40.1071 23.5514Z" fill="white"/>
<path opacity="0.27" d="M41.4294 23.5874L40.5236 23.5002C40.4287 23.5367 40.4287 23.5367 40.3703 23.6682C40.4068 23.7632 40.4068 23.7631 40.5018 23.7266L41.4076 23.8139C41.5026 23.7773 41.5026 23.7774 41.466 23.6824C41.4295 23.5875 41.4294 23.5874 41.4294 23.5874Z" fill="white"/>
<path opacity="0.27" d="M41.9768 23.5943L41.7503 23.5725C41.6554 23.609 41.6554 23.609 41.6919 23.7039C41.7285 23.7989 41.7285 23.7989 41.8234 23.7623L42.0499 23.7842C42.1448 23.7476 42.1448 23.7476 42.1083 23.6526C42.0133 23.6892 42.0133 23.6892 41.9768 23.5943Z" fill="white"/>
<path opacity="0.27" d="M38.2813 27.3066C38.2447 27.2117 38.2447 27.2117 38.1498 27.2483L36.4113 27.2636C36.3163 27.3002 36.3163 27.3002 36.2579 27.4317C36.2945 27.5266 36.2945 27.5266 36.426 27.585L38.1645 27.5697C38.2229 27.4382 38.2813 27.3066 38.2813 27.3066Z" fill="white"/>
<path opacity="0.27" d="M39.1507 27.2992C39.1142 27.2042 39.1141 27.2042 39.0192 27.2408L38.4713 27.2337C38.3764 27.2702 38.3764 27.2703 38.318 27.4018C38.3546 27.4967 38.3546 27.4967 38.4495 27.4601L38.9974 27.4672C39.0923 27.4307 39.1507 27.2992 39.1507 27.2992Z" fill="white"/>
<path opacity="0.27" d="M37.9245 28.6437C37.8295 28.6802 37.8295 28.6802 37.7711 28.8117C37.7127 28.9432 37.8077 28.9067 37.9026 28.8701L38.4505 28.8772C38.5454 28.8406 38.5454 28.8406 38.6038 28.7091C38.5673 28.6142 38.5673 28.6142 38.4723 28.6508L37.9245 28.6437Z" fill="white"/>
<path opacity="0.27" d="M38.8448 29.0523L37.8806 29.0965C37.7857 29.1331 37.7857 29.1331 37.7273 29.2646C37.7638 29.3596 37.7638 29.3596 37.8588 29.323L38.823 29.2788C38.9179 29.2422 38.9179 29.2422 38.9763 29.1107C38.9763 29.1107 38.9398 29.0158 38.8448 29.0523Z" fill="white"/>
<path opacity="0.27" d="M41.1735 27.1739L40.3043 27.1816L40.2093 27.2182L39.3401 27.2258C39.2451 27.2624 39.2451 27.2624 39.1867 27.3939C39.2233 27.4888 39.2233 27.4888 39.3182 27.4522L40.1875 27.4446L40.2825 27.4081L41.1517 27.4004C41.2467 27.3638 41.2467 27.3638 41.2101 27.2689C41.305 27.2323 41.3051 27.2323 41.1735 27.1739Z" fill="white"/>
<path opacity="0.27" d="M41.7229 27.1812L41.4964 27.1593C41.4015 27.1959 41.4015 27.1959 41.438 27.2909C41.4746 27.3858 41.4746 27.3858 41.5695 27.3492L41.796 27.3711C41.891 27.3345 41.8909 27.3345 41.8544 27.2396C41.8544 27.2396 41.8544 27.2396 41.7229 27.1812Z" fill="white"/>
<path opacity="0.27" d="M39.932 23.9458L39.3842 23.9388C39.2893 23.9753 39.2892 23.9753 39.2309 24.1068C39.2674 24.2018 39.2674 24.2017 39.3624 24.1652L39.9102 24.1723C40.0052 24.1357 40.0052 24.1357 40.0636 24.0042C40.122 23.8727 39.932 23.9458 39.932 23.9458Z" fill="white"/>
<path opacity="0.27" d="M39.5092 25.9622L38.9613 25.9551C38.8664 25.9917 38.8664 25.9917 38.808 26.1232C38.7496 26.2547 38.8445 26.2181 38.9395 26.1816L39.4873 26.1887C39.5823 26.1521 39.5823 26.1521 39.6407 26.0206C39.6991 25.8891 39.6041 25.9256 39.5092 25.9622Z" fill="white"/>
<path opacity="0.27" d="M38.4199 23.9829C38.4565 24.0779 38.4565 24.0779 38.588 24.1363L39.1359 24.1434C39.2308 24.1068 39.2308 24.1069 39.2892 23.9753C39.3476 23.8438 39.2526 23.8804 39.1577 23.9169L38.6098 23.9098C38.4783 23.8514 38.3834 23.888 38.4199 23.9829Z" fill="white"/>
<path opacity="0.27" d="M38.1568 23.8661L37.156 23.8153C37.061 23.8519 37.061 23.8519 37.0027 23.9834C36.9443 24.1149 37.0392 24.0783 37.1707 24.1367L38.1715 24.1875C38.2665 24.1509 38.2664 24.1509 38.3248 24.0194C38.1933 23.961 38.1568 23.8661 38.1568 23.8661Z" fill="white"/>
<path opacity="0.27" d="M36.5854 24.0349L36.8118 24.0567C36.9068 24.0201 36.9068 24.0202 36.9652 23.8887C36.9286 23.7937 36.9286 23.7937 36.7971 23.7353L36.5706 23.7135C36.4757 23.7501 36.4757 23.75 36.4173 23.8816C36.3589 24.0131 36.4904 24.0715 36.5854 24.0349Z" fill="white"/>
<path opacity="0.27" d="M40.3477 26.7287C40.2528 26.7653 40.2528 26.7653 40.1944 26.8968C40.2309 26.9918 40.2309 26.9917 40.3259 26.9552L40.5523 26.977C40.6473 26.9404 40.6473 26.9404 40.7057 26.8089C40.7641 26.6774 40.6691 26.714 40.5742 26.7506L40.3477 26.7287Z" fill="white"/>
<path opacity="0.27" d="M39.0195 28.6578L38.793 28.636C38.6981 28.6726 38.6981 28.6725 38.6397 28.804C38.5813 28.9356 38.6762 28.899 38.7712 28.8625L38.9976 28.8843C39.0926 28.8477 39.0926 28.8477 39.151 28.7162C39.2094 28.5847 39.1144 28.6212 39.0195 28.6578Z" fill="white"/>
<path opacity="0.27" d="M37.8513 28.4536L38.0777 28.4754C38.1727 28.4389 38.1727 28.4389 38.2311 28.3074C38.2895 28.1759 38.1945 28.2125 38.0996 28.249L37.8731 28.2272C37.7781 28.2637 37.7782 28.2638 37.7198 28.3953C37.8147 28.3587 37.8513 28.4536 37.8513 28.4536Z" fill="white"/>
</g>
<path opacity="0.05" d="M47.6493 18.7928L47.6275 19.0192C47.5691 19.1507 47.5107 19.2823 47.3792 19.2239L45.699 19.1077C45.5675 19.0493 45.436 18.9909 45.4578 18.7644L45.4797 18.538L45.2532 18.5162C44.9318 18.5309 44.5886 18.7721 44.6033 19.0935L44.1751 25.9091C44.1898 26.2305 44.431 26.5737 44.7524 26.559L46.9439 26.5873C47.3602 26.536 47.7034 26.2948 47.7471 25.8419L48.0951 19.3843C48.2119 19.1213 47.9123 18.9095 47.6493 18.7928Z" fill="white"/>
<g opacity="0.3">
<g opacity="0.3">
<path opacity="0.3" d="M48.1031 20.2536L44.5164 19.9994L48.1031 20.2536Z" fill="white"/>
</g>
<g opacity="0.3">
<path opacity="0.3" d="M47.9586 24.1251L44.3135 24.0024L44.2769 23.9074L47.922 24.0301L47.9586 24.1251Z" fill="white"/>
</g>
<g opacity="0.3">
<path opacity="0.3" d="M47.8791 25.9004L44.2339 25.7777L47.8791 25.9004Z" fill="white"/>
</g>
<g opacity="0.3">
<path opacity="0.3" d="M44.3959 26.4789L44.301 26.5154L44.7363 19.152L44.3959 26.4789Z" fill="white"/>
</g>
<g opacity="0.3">
<path opacity="0.3" d="M45.1694 26.5078L45.5098 19.181L45.1694 26.5078Z" fill="white"/>
</g>
<g opacity="0.3">
<path opacity="0.3" d="M45.9434 26.5367L46.3203 19.3047L45.9434 26.5367Z" fill="white"/>
</g>
<g opacity="0.3">
<path opacity="0.3" d="M46.7188 26.5656L47.0957 19.3337L46.7188 26.5656Z" fill="white"/>
</g>
<g opacity="0.3">
<path opacity="0.3" d="M47.4922 26.5946L47.8691 19.3627L47.4922 26.5946Z" fill="white"/>
</g>
</g>
<path opacity="0.19" d="M16.0568 37.8273L3.66053 37.9126L3.52903 37.8542L2.55374 28.5264C2.51718 28.4314 2.61213 28.3949 2.61213 28.3949L14.6787 26.0379C14.7737 26.0013 14.8102 26.0963 14.8468 26.1912L16.0202 37.7323C16.1517 37.7907 16.1883 37.8857 16.0568 37.8273Z" fill="white"/>
<path opacity="0.27" d="M15.0156 26.3445L2.62761 28.7162L2.55449 28.5263C2.51792 28.4314 2.61288 28.3948 2.61288 28.3948L14.6795 26.0378C14.7744 26.0012 14.811 26.0962 14.8475 26.1911L15.0156 26.3445Z" fill="white"/>
<path opacity="0.05" d="M16.0576 37.8274L11.8428 37.9241L10.772 27.2156L15.0523 26.4396L16.1526 37.7909C16.1526 37.7909 16.0942 37.9224 16.0576 37.8274Z" fill="white"/>
<path opacity="0.29" d="M9.2391 28.8961L8.31144 29.0353L7.47875 29.1379C7.28886 29.2111 7.09895 29.2842 7.04057 29.4157C6.98218 29.5472 6.86542 29.8102 6.90198 29.9052L7.04113 30.8328L7.08535 31.797C7.13665 32.2134 7.47279 32.52 7.79419 32.5053L9.59111 32.3585C10.0075 32.3072 10.2776 31.8761 10.2263 31.4597L9.96978 29.378C9.9916 29.1515 9.65545 28.8448 9.2391 28.8961ZM10.0429 29.5679L10.1237 30.627L10.0287 30.6636L9.94796 29.6044C9.87483 29.4145 9.83826 29.3196 9.8017 29.2246L9.86009 29.0931C9.89666 29.1881 9.96978 29.378 10.0429 29.5679ZM7.11426 31.0227L7.30415 30.9496C7.31889 31.271 7.46514 31.6508 7.76472 31.8625L7.39966 32.3301C7.3631 32.2352 7.23161 32.1768 7.25343 31.9504L7.11426 31.0227ZM9.67076 30.5834L9.15947 30.6713C9.1813 30.4448 9.01321 30.2914 8.84514 30.1381L9.11524 29.707C9.50977 29.8822 9.65603 30.262 9.67076 30.5834ZM7.30415 30.9496L7.81545 30.8617C7.79362 31.0881 7.96171 31.2415 8.03483 31.4314L7.76472 31.8625C7.56009 31.6142 7.31889 31.271 7.30415 30.9496ZM9.15947 30.6713L8.96957 30.7444C8.93301 30.6494 8.85988 30.4595 8.82332 30.3646L8.97666 30.1965C9.10817 30.2549 9.1813 30.4448 9.15947 30.6713ZM7.81545 30.8617L8.00535 30.7886C8.04191 30.8835 8.11504 31.0734 8.1516 31.1684L7.99826 31.3364C7.96169 31.2415 7.79362 31.0881 7.81545 30.8617ZM8.08556 30.4306C8.02717 30.5621 7.96878 30.6936 8.00535 30.7886L7.81545 30.8617C7.83727 30.6352 7.8591 30.4088 7.91748 30.2773L8.08556 30.4306ZM8.96957 30.7444L8.45826 30.8322L8.72837 30.4011C8.95483 30.423 8.9914 30.5179 8.96957 30.7444ZM8.96957 30.7444C9.00614 30.8393 8.98431 31.0658 8.88936 31.1023L8.55321 30.7957L8.96957 30.7444ZM8.04192 30.8835L8.45826 30.8322L8.18816 31.2633C8.11503 31.0734 8.07848 30.9785 8.04192 30.8835ZM8.45826 30.8322L8.54612 31.3435C8.45118 31.3801 8.31967 31.3217 8.18816 31.2633L8.45826 30.8322ZM8.55321 30.7957L8.88936 31.1023C8.83098 31.2339 8.73602 31.2704 8.54612 31.3435L8.55321 30.7957ZM8.51666 30.7007L8.4288 30.1894C8.52374 30.1529 8.65525 30.2113 8.78676 30.2697L8.51666 30.7007ZM8.51666 30.7007L8.1805 30.394C8.23889 30.2625 8.33385 30.226 8.52374 30.1529L8.51666 30.7007ZM8.45826 30.8322L8.04192 30.8835C8.00536 30.7886 8.06375 30.6571 8.12213 30.5256L8.45826 30.8322ZM8.18816 31.2633C8.31967 31.3217 8.45118 31.3801 8.54612 31.3435L8.52431 31.57C8.33441 31.6431 8.16634 31.4898 8.03483 31.4314L8.18816 31.2633ZM8.54612 31.3435C8.64107 31.307 8.83098 31.2339 8.88936 31.1023L9.05744 31.2557C8.9041 31.4238 8.7142 31.4969 8.61925 31.5334L8.54612 31.3435ZM8.88936 31.1023C8.94775 30.9708 9.00614 30.8393 8.96957 30.7444L9.15947 30.6713C9.13765 30.8977 9.11582 31.1242 9.05744 31.2557L8.88936 31.1023ZM8.82332 30.3646C8.69181 30.3062 8.5603 30.2478 8.46535 30.2844L8.48717 30.0579C8.67706 29.9848 8.84515 30.1381 8.97666 30.1965L8.82332 30.3646ZM8.4288 30.1894C8.33385 30.226 8.14394 30.2991 8.08556 30.4306L7.91748 30.2773C8.07081 30.1092 8.16577 30.0726 8.35567 29.9995L8.4288 30.1894ZM7.91748 30.2773L7.58135 29.9706C7.79307 29.671 8.04134 29.4664 8.36275 29.4517L8.45061 29.963C8.26072 30.0361 8.07081 30.1092 7.91748 30.2773ZM7.91748 30.2773C7.76415 30.4453 7.74232 30.6718 7.81545 30.8617L7.30415 30.9496C7.28941 30.6282 7.36963 30.2702 7.58135 29.9706L7.91748 30.2773ZM8.03483 31.4314C8.2029 31.5847 8.33441 31.6431 8.52431 31.57L8.61217 32.0813C8.29076 32.096 7.9328 32.0158 7.72817 31.7676L8.03483 31.4314ZM8.61925 31.5334C8.80915 31.4603 8.99905 31.3872 9.05744 31.2557L9.43015 31.6573C9.21843 31.9569 8.93357 32.0665 8.64872 32.1762L8.61925 31.5334ZM9.05744 31.2557C9.21077 31.0876 9.2326 30.8612 9.15947 30.6713L9.67076 30.5834C9.72207 30.9997 9.60529 31.2627 9.39357 31.5623L9.05744 31.2557ZM8.94009 30.1015C8.77202 29.9482 8.64051 29.8898 8.45061 29.963L8.36275 29.4517C8.68415 29.4369 9.04213 29.5171 9.2102 29.6705L8.94009 30.1015ZM8.36275 29.4517L8.38457 29.2252L9.31223 29.086C9.40717 29.0495 9.53869 29.1079 9.6702 29.1663L9.3417 29.7288C9.00555 29.4222 8.64759 29.342 8.36275 29.4517ZM8.36275 29.4517C8.04134 29.4664 7.79307 29.671 7.58135 29.9706L7.1137 29.6056C7.17208 29.4741 7.26702 29.4375 7.45691 29.3643L8.38457 29.2252L8.36275 29.4517ZM7.58135 29.9706C7.36963 30.2702 7.28941 30.6282 7.30415 30.9496L7.11426 31.0227L7.03348 29.9635C6.99692 29.8686 7.05531 29.7371 7.1137 29.6056L7.58135 29.9706ZM7.76472 31.8625C7.96935 32.1108 8.32732 32.191 8.64872 32.1762L8.62691 32.4027L7.69925 32.5418C7.6043 32.5784 7.4728 32.5201 7.34129 32.4617L7.76472 31.8625ZM8.64872 32.1762C8.97013 32.1615 9.31338 31.9203 9.43015 31.6573L9.93435 32.1173C9.87596 32.2488 9.68606 32.3219 9.59111 32.3585L8.66348 32.4977L8.64872 32.1762ZM9.52509 31.6207C9.73681 31.3212 9.817 30.9631 9.80226 30.6417L9.99216 30.5686L10.0729 31.6278C10.1095 31.7227 10.0877 31.9492 9.99274 31.9858L9.52509 31.6207ZM9.76571 30.5468C9.71441 30.1305 9.50978 29.8822 9.30514 29.6339L9.63363 29.0713C9.76514 29.1297 9.83827 29.3196 9.77988 29.4511L9.86066 30.5103L9.76571 30.5468ZM9.2391 28.8961C9.42899 28.823 9.5605 28.8814 9.72857 29.0347L9.6702 29.1663C9.53869 29.1079 9.40717 29.0495 9.31223 29.086L8.38457 29.2252L8.34801 29.1303L9.2391 28.8961ZM7.47875 29.1379L8.31144 29.0353L8.34801 29.1303L7.42036 29.2694C7.32541 29.306 7.13551 29.3791 7.07712 29.5106L7.04057 29.4157C7.13552 29.3791 7.28886 29.2111 7.47875 29.1379ZM6.93853 30.0001C6.96036 29.7736 7.01874 29.6421 7.07712 29.5106L7.1137 29.6056C7.05531 29.7371 6.99692 29.8686 7.03348 29.9635L7.07771 30.9278L6.98276 30.9643L6.93853 30.0001ZM6.98276 30.9643L7.07771 30.9278L7.15848 31.9869C7.19504 32.0819 7.26816 32.2717 7.30472 32.3667L7.24635 32.4982C7.11484 32.4398 7.04171 32.25 7.06354 32.0235L6.98276 30.9643ZM7.34129 32.4617C7.4728 32.5201 7.6043 32.5784 7.79419 32.5053L8.72185 32.3661L8.75843 32.4611L7.92571 32.5637C7.64087 32.6734 7.4728 32.5201 7.34129 32.4617ZM9.62769 32.4534L8.70003 32.5926L8.66348 32.4977L9.59111 32.3585C9.68606 32.3219 9.87596 32.2488 9.93435 32.1173L9.9709 32.2122L9.93435 32.1173C9.99274 31.9858 10.0511 31.8543 10.0146 31.7593L9.93379 30.7002L10.0287 30.6636L10.1095 31.7228C10.2192 32.0076 9.94909 32.4387 9.62769 32.4534Z" fill="white"/>
<path opacity="0.29" d="M14.438 27.1117L11.4652 27.6024C11.4652 27.6024 11.3702 27.6389 11.4286 27.5074L11.392 27.4125C11.392 27.4125 11.3554 27.3175 11.4504 27.2809L14.3867 26.6954C14.3867 26.6954 14.4817 26.6588 14.5182 26.7538L14.438 27.1117Z" fill="white"/>
<g opacity="0.46">
<path opacity="0.29" d="M13.5044 27.7985L11.4592 28.15L13.5044 27.7985C13.4679 27.7035 13.5628 27.667 13.5044 27.7985Z" fill="white"/>
<path opacity="0.29" d="M13.1976 28.1347L11.4738 28.4714L13.1976 28.1347C13.161 28.0398 13.161 28.0398 13.1976 28.1347Z" fill="white"/>
<path opacity="0.29" d="M14.009 28.2586L11.5474 28.6614L14.009 28.2586C13.9724 28.1637 14.009 28.2586 14.009 28.2586Z" fill="white"/>
<path opacity="0.29" d="M14.0237 28.5801L11.5622 28.9829L14.0237 28.5801C14.0821 28.4486 14.0821 28.4486 14.0237 28.5801C14.1187 28.5435 14.0237 28.5801 14.0237 28.5801Z" fill="white"/>
</g>
<g opacity="0.46">
<path opacity="0.29" d="M13.6878 29.6905L11.606 29.947L13.6878 29.6905C13.7462 29.559 13.7462 29.559 13.6878 29.6905Z" fill="white"/>
<path opacity="0.29" d="M13.3814 30.0266L11.621 30.2684L13.3814 30.0266C13.3448 29.9317 13.4398 29.8951 13.3814 30.0266Z" fill="white"/>
<path opacity="0.29" d="M14.1928 30.1505L11.6947 30.4583L14.1928 30.1505C14.1562 30.0555 14.2878 30.1139 14.1928 30.1505Z" fill="white"/>
<path opacity="0.29" d="M14.2067 30.4721L11.7086 30.7799L14.2067 30.4721C14.2651 30.3405 14.2651 30.3405 14.2067 30.4721C14.3017 30.4355 14.2067 30.4721 14.2067 30.4721Z" fill="white"/>
</g>
<g opacity="0.46">
<path opacity="0.29" d="M13.8714 31.5825L11.7896 31.839L13.8714 31.5825C13.9298 31.451 13.9298 31.451 13.8714 31.5825C13.9663 31.546 13.8714 31.5825 13.8714 31.5825Z" fill="white"/>
<path opacity="0.29" d="M13.5653 31.9186L11.8999 32.1238L13.5653 31.9186C13.6236 31.7871 13.6236 31.7871 13.5653 31.9186Z" fill="white"/>
<path opacity="0.29" d="M14.3761 32.0424L11.8415 32.2553L14.3761 32.0424C14.4345 31.9109 14.4711 32.0058 14.3761 32.0424Z" fill="white"/>
<path opacity="0.29" d="M14.3898 32.3639L11.8551 32.5767L14.3898 32.3639C14.4482 32.2324 14.4482 32.2324 14.3898 32.3639C14.4848 32.3273 14.4848 32.3273 14.3898 32.3639Z" fill="white"/>
</g>
<path opacity="0.19" d="M49.2646 16.7545L41.6965 16.0709C41.6016 16.1075 41.565 16.0125 41.5284 15.9176L41.7609 12.5573C41.7243 12.4623 41.8192 12.4258 41.9142 12.3892L49.4604 13.2993C49.5554 13.2627 49.5919 13.3577 49.5335 13.4892L49.323 16.623C49.3595 16.718 49.2646 16.7545 49.2646 16.7545Z" fill="white"/>
<path opacity="0.27" d="M49.5696 13.5838L41.7019 12.6885L41.7238 12.4621C41.6872 12.3671 41.7821 12.3305 41.8771 12.2939L49.4233 13.204C49.5183 13.1675 49.5548 13.2624 49.4964 13.3939L49.5696 13.5838Z" fill="white"/>
<path opacity="0.05" d="M48.7223 14.7822L42.4764 14.1346C42.3815 14.1711 42.3449 14.0762 42.3083 13.9812L42.2718 13.8863C42.2352 13.7914 42.3302 13.7548 42.4251 13.7182L48.671 14.3659C48.7659 14.3293 48.8025 14.4242 48.8391 14.5191L48.8756 14.6141C48.8172 14.7456 48.8172 14.7456 48.7223 14.7822Z" fill="white"/>
<path opacity="0.29" d="M44.3538 13.6297L42.7686 13.4769L42.732 13.382L42.827 13.3455L44.4122 13.4982C44.4122 13.4982 44.4122 13.4982 44.3538 13.6297C44.4487 13.5932 44.3538 13.6297 44.3538 13.6297Z" fill="white"/>
<path opacity="0.27" d="M47.1382 14.6294L42.4776 14.1346C42.3826 14.1711 42.3461 14.0762 42.3095 13.9812L42.2729 13.8863C42.2364 13.7914 42.3313 13.7548 42.4263 13.7182L47.0869 14.2131C47.1819 14.1765 47.2184 14.2715 47.255 14.3664L47.2916 14.4614C47.3281 14.5563 47.2332 14.5928 47.1382 14.6294Z" fill="white"/>
<g opacity="0.46">
<path opacity="0.29" d="M44.6396 14.937L42.6964 14.704L44.6396 14.937C44.6031 14.8421 44.6396 14.937 44.6396 14.937Z" fill="white"/>
<path opacity="0.29" d="M44.296 15.1784L42.7109 15.0257L44.296 15.1784C44.3544 15.0469 44.3544 15.0469 44.296 15.1784Z" fill="white"/>
<path opacity="0.29" d="M44.9546 15.4702L42.69 15.252L44.9546 15.4702C45.0495 15.4337 45.0495 15.4337 44.9546 15.4702C45.0495 15.4337 44.9546 15.4702 44.9546 15.4702Z" fill="white"/>
<path opacity="0.29" d="M44.9682 15.7917L42.7037 15.5735L44.9682 15.7917C45.0266 15.6602 45.0266 15.6602 44.9682 15.7917C45.0632 15.7552 44.9682 15.7917 44.9682 15.7917Z" fill="white"/>
</g>
<path opacity="0.19" d="M18.1469 23.7214L6.5916 25.9905C6.40171 26.0636 6.32859 25.8738 6.29203 25.7788L5.91591 16.8744C5.87934 16.7794 5.93772 16.6479 6.12762 16.5748L17.624 13.0201C17.8139 12.9469 17.9819 13.1003 17.9235 13.2318L18.3586 23.4218C18.4317 23.6117 18.3368 23.6483 18.1469 23.7214Z" fill="white"/>
<path opacity="0.27" d="M18.0208 13.1945C18.0427 12.968 17.8162 12.9462 17.7213 12.9828L6.22492 16.5375C6.12998 16.5741 6.0716 16.7056 6.01321 16.8371L5.99138 17.0635L18.0208 13.1945Z" fill="white"/>
<path opacity="0.05" d="M6.51787 17.2971L6.65817 21.059C6.69473 21.1539 6.69472 21.1539 6.78967 21.1173L11.7199 19.764C11.7199 19.764 11.8148 19.7274 11.7783 19.6325L11.6014 15.7756C11.5648 15.6807 11.5648 15.6807 11.4699 15.7172L6.51787 17.2971C6.57625 17.1655 6.48131 17.2021 6.51787 17.2971Z" fill="white"/>
<path opacity="0.05" d="M18.3617 23.4212L17.9632 13.3262L14.0556 14.5038L14.2861 24.4455L18.15 23.7208C18.3399 23.6477 18.4348 23.6111 18.3617 23.4212Z" fill="white"/>
<path opacity="0.05" d="M17.6702 13.9837C17.6337 13.8888 17.6337 13.8888 17.5387 13.9253L14.4273 14.9054C14.4273 14.9054 14.3323 14.942 14.3689 15.0369C14.4054 15.1319 14.4055 15.1319 14.5004 15.0953L17.6119 14.1152C17.6702 13.9837 17.6702 13.9837 17.6702 13.9837Z" fill="white"/>
<path opacity="0.05" d="M17.6273 14.4367C17.5907 14.3418 17.5907 14.3418 17.4957 14.3783L14.3843 15.3584C14.3843 15.3584 14.2893 15.395 14.3259 15.4899C14.3625 15.5849 14.3625 15.5849 14.4574 15.5483L17.5689 14.5682C17.6638 14.5317 17.6273 14.4367 17.6273 14.4367Z" fill="white"/>
<path opacity="0.05" d="M17.7152 14.9479C17.6786 14.853 17.6786 14.853 17.5836 14.8896L14.4722 15.8697C14.4722 15.8697 14.3772 15.9062 14.4138 16.0012C14.4504 16.0961 14.4504 16.0961 14.5453 16.0595L17.6568 15.0795C17.6568 15.0795 17.6202 14.9845 17.7152 14.9479Z" fill="white"/>
<path opacity="0.05" d="M10.0988 20.9335C10.0623 20.8385 10.0623 20.8386 9.96733 20.8751L6.87769 21.6287C6.87769 21.6287 6.78275 21.6653 6.81931 21.7602C6.85587 21.8552 6.85587 21.8552 6.95082 21.8186L10.0404 21.065C10.0404 21.065 10.1354 21.0284 10.0988 20.9335Z" fill="white"/>
<path opacity="0.05" d="M10.113 21.2551L6.83353 22.0818L10.113 21.2551Z" fill="white"/>
<path opacity="0.05" d="M10.0916 21.4812C10.055 21.3862 10.055 21.3862 10.0916 21.4812L6.81203 22.308L10.0916 21.4812Z" fill="white"/>
<path opacity="0.05" d="M10.1287 21.5763L6.84914 22.403L10.1287 21.5763C10.1652 21.6712 10.1652 21.6712 10.1287 21.5763Z" fill="white"/>
<path opacity="0.05" d="M10.1359 22.4456C10.0994 22.3507 10.0994 22.3506 10.0044 22.3872L6.9148 23.1409C6.9148 23.1409 6.81984 23.1774 6.85641 23.2724C6.89297 23.3673 6.89297 23.3673 6.98792 23.3308L10.0775 22.5771C10.041 22.4822 10.1359 22.4456 10.1359 22.4456Z" fill="white"/>
<path opacity="0.05" d="M10.1131 22.672L6.83353 23.4988L10.1131 22.672C10.1496 22.767 10.1496 22.767 10.1131 22.672Z" fill="white"/>
<path opacity="0.05" d="M10.1873 22.8621L6.90774 23.6889L10.1873 22.8621C10.0923 22.8987 10.1873 22.8621 10.1873 22.8621Z" fill="white"/>
<path opacity="0.05" d="M10.1658 23.0884C10.1658 23.0884 10.1292 22.9934 10.1658 23.0884L6.88625 23.9152L10.1658 23.0884Z" fill="white"/>
<path opacity="0.05" d="M10.1359 23.8627C10.0994 23.7677 10.0994 23.7678 10.0044 23.8043L6.9148 24.5579C6.9148 24.5579 6.81984 24.5945 6.85641 24.6894C6.89297 24.7844 6.89298 24.7844 6.98793 24.7478L10.0775 23.9942C10.1359 23.8627 10.1359 23.8627 10.1359 23.8627Z" fill="white"/>
<path opacity="0.05" d="M10.2088 24.0527L6.92923 24.8794L10.2088 24.0527C10.2453 24.1476 10.2088 24.0527 10.2088 24.0527Z" fill="white"/>
<path opacity="0.05" d="M10.1873 24.2791L6.90774 25.1058L10.1873 24.2791Z" fill="white"/>
<path opacity="0.05" d="M10.2595 24.4691C10.2595 24.4691 10.223 24.3741 10.2595 24.4691L6.98001 25.2958L10.2595 24.4691C10.1646 24.5056 10.2595 24.4691 10.2595 24.4691Z" fill="white"/>
<path opacity="0.05" d="M17.7952 17.4241C17.7587 17.3291 17.7587 17.3292 17.6637 17.3657L14.5523 18.3458C14.5523 18.3458 14.4573 18.3824 14.4939 18.4773C14.5304 18.5723 14.5304 18.5723 14.6254 18.5357L17.7368 17.5556C17.8318 17.519 17.8318 17.519 17.7952 17.4241Z" fill="white"/>
<g opacity="0.27">
<path opacity="0.27" d="M6.59258 20.3214C6.59258 20.3214 6.78957 19.7004 7.15462 19.2328C7.30795 19.0647 7.5344 19.0865 7.83399 19.2982C8.13357 19.51 8.5281 19.6851 8.94446 19.6338C9.55071 19.5094 9.65274 18.925 9.71821 18.2456C9.76186 17.7927 9.84206 17.4347 9.99539 17.2666C10.2437 17.062 10.4336 16.9889 10.5285 16.9523C10.7184 16.8792 10.8134 16.8426 10.9667 16.6746C11.0835 16.4115 11.2368 16.2435 11.3317 16.2069C11.4267 16.1703 11.5216 16.1338 11.5216 16.1338C11.5216 16.1338 11.1053 16.1851 10.9667 16.6746C10.8499 16.9376 10.755 16.9741 10.5651 17.0473C10.3752 17.1204 10.2437 17.062 10.032 17.3616C9.87863 17.5297 9.83498 17.9826 9.75477 18.3405C9.67456 18.6985 9.6893 19.0199 9.57253 19.2829C9.45576 19.546 9.30242 19.714 8.98101 19.7288C8.88606 19.7653 8.79113 19.8019 8.75456 19.7069C8.43316 19.7217 8.13357 19.51 7.87055 19.3932C7.60753 19.2764 7.43945 19.1231 7.19117 19.3277C6.92107 19.7588 6.59258 20.3214 6.59258 20.3214Z" fill="white"/>
</g>
<g opacity="0.27">
<path opacity="0.27" d="M6.68021 20.8327C6.68021 20.8327 6.76042 20.4747 6.97214 20.1751C7.18386 19.8755 7.45397 19.4444 7.9287 19.2616C8.40344 19.0788 8.70302 19.2905 8.96604 19.4073C9.22906 19.5241 9.49208 19.6409 9.81349 19.6261C10.2882 19.4433 10.3171 18.669 10.441 17.8581C10.4481 17.3103 10.4917 16.8573 10.6451 16.6893C10.8568 16.3897 11.0832 16.4115 11.2731 16.3384C11.3681 16.3018 11.4996 16.3602 11.6895 16.2871C11.4996 16.3602 11.4046 16.3968 11.2731 16.3384C11.0467 16.3166 10.8568 16.3897 10.6451 16.6893C10.4917 16.8573 10.4481 17.3103 10.441 17.8581C10.4121 18.6324 10.3248 19.5383 9.85005 19.7211C9.47026 19.8673 9.17067 19.6556 9.0026 19.5023C8.73958 19.3855 8.44001 19.1738 7.96527 19.3566C7.68043 19.4663 7.33719 19.7075 7.0087 20.2701C6.76042 20.4747 6.68021 20.8327 6.68021 20.8327Z" fill="white"/>
</g>
<g opacity="0.27">
<path opacity="0.27" d="M6.79007 21.1175C6.79007 21.1175 6.75352 21.0225 6.90685 20.8545C6.96524 20.7229 7.15513 20.6498 7.38159 20.6716C7.60805 20.6935 7.89288 20.5838 8.14117 20.3792C8.6159 20.1963 9.24397 19.8454 9.92335 19.9109C10.0183 19.8743 10.2082 19.8012 10.3031 19.7647C10.6682 19.297 10.5874 18.2379 10.5798 17.3686C10.5869 16.8207 10.5356 16.4044 10.5939 16.2729C10.6889 16.2363 10.6889 16.2363 10.6889 16.2363C10.8204 16.2947 10.8935 16.4846 11.0032 16.7694C11.0763 16.9593 11.1129 17.0543 11.1129 17.0543C11.2078 17.0177 11.2078 17.0177 11.1713 16.9228C11.1347 16.8278 11.1931 16.6963 11.288 16.6597C11.4779 16.5866 11.5729 16.55 11.5729 16.55C11.5729 16.55 11.4414 16.4917 11.288 16.6597C11.1931 16.6963 11.1347 16.8278 11.1713 16.9228C11.2078 17.0177 11.1129 17.0543 11.1129 17.0543C11.0179 17.0908 11.0398 16.8644 11.0032 16.7694C10.9301 16.5795 10.8204 16.2947 10.7254 16.3312L10.6305 16.3678C10.5721 16.4993 10.5285 16.9522 10.6163 17.4635C10.624 18.3328 10.7413 19.4869 10.3397 19.8596C10.2813 19.9911 10.0914 20.0642 9.95991 20.0059C9.22215 20.0719 8.65247 20.2913 8.17773 20.4741C7.79794 20.6204 7.60805 20.6935 7.41815 20.7666C7.1917 20.7448 7.03836 20.9128 6.94341 20.9494C6.75352 21.0225 6.79007 21.1175 6.79007 21.1175Z" fill="white"/>
</g>
<g opacity="0.18">
<path opacity="0.18" d="M4.06176 87.9194C20.7806 85.2933 34.9978 80.0846 46.2502 72.4715C55.2402 66.3501 62.4062 58.7149 67.5165 49.655C76.2415 34.3275 75.9329 20.1736 75.8735 20.0192L75.6893 20.0015C75.1526 29.4278 71.5207 37.0319 64.8884 42.5999C60.0433 46.5932 50.851 51.7287 34.5949 53.0241C24.89 53.8358 17.1444 52.8292 17.0672 52.8589L17.0495 53.043C17.1267 53.0133 24.8722 54.0199 34.6544 53.1785C50.9876 51.8534 60.18 46.7179 65.0251 42.7246C70.8795 37.8993 74.3278 31.4298 75.5661 23.595C75.0692 28.7507 73.4636 38.8545 67.3799 49.5303C62.317 58.4833 55.151 66.1185 46.161 72.2399C34.9086 79.853 20.7686 85.032 4.04976 87.658L4.06176 87.9194Z" fill="white"/>
</g>
</g>
<path fill-rule="evenodd" clip-rule="evenodd" d="M10.8873 28.9779C10.2415 27.0884 9.89062 25.0588 9.89062 22.9461C9.89062 12.7907 17.9979 4.55804 27.9986 4.55804C37.9994 4.55804 46.1066 12.7907 46.1066 22.9461C46.1066 25.0589 45.7557 27.0884 45.1099 28.9779C40.1473 30.7425 34.2824 31.7624 27.9987 31.7624C21.7149 31.7624 15.8499 30.7425 10.8873 28.9779Z" fill="url(#paint2_radial_2301_621)"/>
<path d="M16.7516 13.4963C16.7803 17.6882 21.8227 21.0458 28.0419 20.9878C34.2611 20.9299 39.2703 17.4836 39.2416 13.2917C39.2128 9.09973 34.1705 5.74219 27.9512 5.80013C21.732 5.85807 16.7229 9.30433 16.7516 13.4963Z" fill="url(#paint3_radial_2301_621)"/>
<path fill-rule="evenodd" clip-rule="evenodd" d="M15.1801 36.6323C15.1671 36.695 15.1522 36.7578 15.1353 36.8206C14.668 38.5649 12.8965 39.6058 11.1788 39.1455C9.46103 38.6853 8.44741 36.8981 8.9148 35.1538C8.91519 35.1523 8.91559 35.1508 8.91598 35.1494C9.95327 34.9988 11.1751 35.0721 12.4308 35.4085C13.4815 35.6901 14.4196 36.1193 15.1801 36.6323Z" fill="url(#paint4_linear_2301_621)"/>
<path fill-rule="evenodd" clip-rule="evenodd" d="M40.8199 36.6322C40.8329 36.695 40.8478 36.7578 40.8647 36.8206C41.332 38.5649 43.1035 39.6058 44.8212 39.1455C46.539 38.6853 47.5526 36.8981 47.0852 35.1538C47.0848 35.1523 47.0844 35.1508 47.084 35.1494C46.0467 34.9988 44.8248 35.0721 43.5691 35.4085C42.5184 35.6901 41.5804 36.1193 40.8199 36.6322Z" fill="url(#paint5_linear_2301_621)"/>
<path fill-rule="evenodd" clip-rule="evenodd" d="M24.7849 37.7163C24.7812 37.7803 24.7793 37.8449 24.7793 37.91C24.7793 39.7158 26.2209 41.1797 27.9993 41.1797C29.7776 41.1797 31.2193 39.7158 31.2193 37.91C31.2193 37.9084 31.2193 37.9068 31.2193 37.9052C30.2563 37.4913 29.0571 37.2458 27.7571 37.2458C26.6693 37.2458 25.6521 37.4177 24.7849 37.7163Z" fill="url(#paint6_linear_2301_621)"/>
<path fill-rule="evenodd" clip-rule="evenodd" d="M10.888 28.9778C10.2422 27.0883 9.8913 25.0587 9.8913 22.946C9.8913 22.2833 9.92581 21.6289 9.99312 20.9844C3.9971 22.7502 0.193359 25.3816 0.193359 28.3206C0.193359 33.6375 12.6425 37.9477 27.9993 37.9477C43.3561 37.9477 55.8053 33.6375 55.8053 28.3206C55.8053 25.3816 52.0015 22.7502 46.0055 20.9844C46.0728 21.6289 46.1073 22.2833 46.1073 22.946C46.1073 25.0587 45.7564 27.0883 45.1106 28.9778C40.148 30.7424 34.283 31.7622 27.9993 31.7622C21.7156 31.7622 15.8506 30.7424 10.888 28.9778Z" fill="url(#paint7_linear_2301_621)"/>
<g style="mix-blend-mode:multiply">
<path fill-rule="evenodd" clip-rule="evenodd" d="M45.2983 28.3957C40.1772 29.8709 34.2779 30.7114 27.9987 30.7114C21.7196 30.7114 15.8203 29.8709 10.6992 28.3957C10.7589 28.5912 10.8216 28.7852 10.8875 28.9779C15.85 30.7425 21.715 31.7623 27.9987 31.7623C34.2824 31.7623 40.1474 30.7424 45.11 28.9778C45.1758 28.7852 45.2386 28.5911 45.2983 28.3957Z" fill="#01D4E4"/>
</g>
<path d="M13.2831 38.1379C13.4396 37.4901 12.7907 36.7785 11.829 36.5487C10.8674 36.3188 9.96228 36.6581 9.80574 37.3059C9.64921 37.9537 10.2982 38.6653 11.2598 38.8951C12.2215 39.125 13.1266 38.7857 13.2831 38.1379Z" fill="url(#paint8_radial_2301_621)"/>
<path d="M42.5724 38.1379C42.4158 37.4901 43.0648 36.7785 44.0265 36.5487C44.9881 36.3188 45.8932 36.6581 46.0497 37.3059C46.2063 37.9537 45.5573 38.6653 44.5956 38.8951C43.634 39.125 42.7289 38.7857 42.5724 38.1379Z" fill="url(#paint9_radial_2301_621)"/>
<path d="M29.7857 39.5656C29.7692 38.8993 28.9582 38.38 27.9698 38.4068C26.9814 38.4337 26.195 38.9957 26.2115 39.6619C26.2279 40.3281 27.0389 40.8475 28.0273 40.8207C29.0157 40.7938 29.8021 40.2318 29.7857 39.5656Z" fill="url(#paint10_radial_2301_621)"/>
<g style="mix-blend-mode:multiply">
<path fill-rule="evenodd" clip-rule="evenodd" d="M9.89882 22.4108C9.91234 21.9305 9.944 21.4548 9.99312 20.9844C9.96573 20.9925 9.93838 21.0005 9.91108 21.0086C9.89794 21.296 9.8913 21.5851 9.8913 21.8757C9.8913 22.0547 9.89382 22.233 9.89882 22.4108ZM46.0998 22.4109C46.1048 22.2331 46.1073 22.0547 46.1073 21.8757C46.1073 21.5851 46.1007 21.296 46.0875 21.0086C46.0602 21.0005 46.0329 20.9924 46.0055 20.9844C46.0546 21.4548 46.0863 21.9306 46.0998 22.4109ZM55.763 27.7855C54.9611 32.8535 42.8375 36.8775 27.9993 36.8775C13.1611 36.8775 1.03753 32.8535 0.235591 27.7855C0.207559 27.9626 0.193359 28.141 0.193359 28.3206C0.193359 33.6375 12.6425 37.9477 27.9993 37.9477C43.3561 37.9477 55.8053 33.6375 55.8053 28.3206C55.8053 28.141 55.7911 27.9626 55.763 27.7855Z" fill="#01D4E4"/>
</g>
<defs>
<linearGradient id="paint0_linear_2301_621" x1="27.2796" y1="26.7879" x2="27.2796" y2="61.5412" gradientUnits="userSpaceOnUse">
<stop stop-color="#06C0CF"/>
<stop offset="1" stop-color="#06C0CF" stop-opacity="0"/>
</linearGradient>
<radialGradient id="paint1_radial_2301_621" cx="0" cy="0" r="1" gradientUnits="userSpaceOnUse" gradientTransform="translate(23.3754 -11.3139) rotate(-156.623) scale(67.1894 65.3001)">
<stop offset="0.1823" stop-color="#57DCEA" stop-opacity="0"/>
<stop offset="0.6861" stop-color="#57C8CE"/>
</radialGradient>
<radialGradient id="paint2_radial_2301_621" cx="0" cy="0" r="1" gradientUnits="userSpaceOnUse" gradientTransform="translate(23.3754 -11.3139) rotate(-156.623) scale(67.1894 65.3001)">
<stop offset="0.1823" stop-color="#57DCEA" stop-opacity="0.2"/>
<stop offset="0.6861" stop-color="#57C8CE" stop-opacity="0.5"/>
</radialGradient>
<radialGradient id="paint3_radial_2301_621" cx="0" cy="0" r="1" gradientUnits="userSpaceOnUse" gradientTransform="translate(23.336 -2.03805) rotate(-28.9772) scale(21.8991 24.4573)">
<stop offset="0.339" stop-color="white"/>
<stop offset="1" stop-color="white" stop-opacity="0"/>
</radialGradient>
<linearGradient id="paint4_linear_2301_621" x1="11.1788" y1="39.1455" x2="12.1969" y2="35.3459" gradientUnits="userSpaceOnUse">
<stop stop-color="#01D4E4"/>
<stop offset="1" stop-color="#00B0CC"/>
</linearGradient>
<linearGradient id="paint5_linear_2301_621" x1="44.8212" y1="39.1455" x2="43.8031" y2="35.3459" gradientUnits="userSpaceOnUse">
<stop stop-color="#01D4E4"/>
<stop offset="1" stop-color="#00B0CC"/>
</linearGradient>
<linearGradient id="paint6_linear_2301_621" x1="27.9993" y1="41.1797" x2="27.9993" y2="37.2458" gradientUnits="userSpaceOnUse">
<stop stop-color="#01D4E4"/>
<stop offset="1" stop-color="#00B0CC"/>
</linearGradient>
<linearGradient id="paint7_linear_2301_621" x1="27.9993" y1="14.3473" x2="27.9993" y2="67.8196" gradientUnits="userSpaceOnUse">
<stop stop-color="#01D4E4"/>
<stop offset="1" stop-color="#00C9DC"/>
</linearGradient>
<radialGradient id="paint8_radial_2301_621" cx="0" cy="0" r="1" gradientUnits="userSpaceOnUse" gradientTransform="translate(11.6708 40.2815) rotate(165) scale(3.48142 3.88811)">
<stop offset="0.339" stop-color="white" stop-opacity="0.2"/>
<stop offset="1" stop-color="white" stop-opacity="0"/>
</radialGradient>
<radialGradient id="paint9_radial_2301_621" cx="0" cy="0" r="1" gradientUnits="userSpaceOnUse" gradientTransform="translate(44.1846 40.2815) rotate(15) scale(3.48142 3.88811)">
<stop offset="0.339" stop-color="white" stop-opacity="0.2"/>
<stop offset="1" stop-color="white" stop-opacity="0"/>
</radialGradient>
<radialGradient id="paint10_radial_2301_621" cx="0" cy="0" r="1" gradientUnits="userSpaceOnUse" gradientTransform="translate(28.7832 42.0534) rotate(150) scale(3.48142 3.88811)">
<stop offset="0.339" stop-color="white" stop-opacity="0.2"/>
<stop offset="1" stop-color="white" stop-opacity="0"/>
</radialGradient>
</defs>
</svg>
