<svg width="1920" height="479" viewBox="0 0 1920 479" fill="none" xmlns="http://www.w3.org/2000/svg">
<path d="M1955.51 89.3604C1955.51 138.193 1915.92 177.78 1867.09 177.78C1818.26 177.78 1778.67 138.193 1778.67 89.3604C1778.67 40.5277 1818.26 0.94104 1867.09 0.94104C1915.92 0.94104 1955.51 40.5277 1955.51 89.3604Z" fill="#EFEFF3"/>
<path d="M1780.12 94.5955C1729.61 94.5955 1686.38 125.796 1668.62 169.964C1661.44 166.722 1653.51 164.87 1645.18 164.87C1616.89 164.87 1593.39 185.651 1589.17 212.8C1578.41 209.616 1567.06 207.937 1555.26 207.937C1522.74 207.937 1493.29 220.846 1471.65 241.859C1450.93 224.956 1424.54 214.883 1395.79 214.883C1362.75 214.883 1332.83 228.197 1311.13 249.789C1302.62 229.239 1282.37 214.768 1258.7 214.768C1246.73 214.768 1235.62 218.472 1226.47 224.782C1202.87 204.811 1172.37 192.771 1139.1 192.771C1072.84 192.771 1017.7 240.411 1006.01 303.334C992.933 300.44 979.335 298.877 965.39 298.877C927.952 298.877 893.117 309.933 863.896 328.978C863.896 328.688 863.896 328.457 863.896 328.167C863.896 296.851 838.493 271.439 807.188 271.439C794.4 271.439 782.538 275.722 773.048 282.842C766.22 279.948 758.698 278.327 750.828 278.327C750.713 278.327 750.597 278.327 750.481 278.327C750.481 247.01 725.079 221.598 693.774 221.598C662.469 221.598 637.067 247.01 637.067 278.327C637.067 289.152 640.134 299.282 645.399 307.907C644.821 308.37 644.242 308.775 643.721 309.238C636.083 287.647 615.831 272.075 591.817 271.439C576.193 241.801 545.062 221.598 509.186 221.598C501.027 221.598 493.1 222.64 485.52 224.608C452.942 109.935 347.513 26.0001 222.468 26.0001C71.4413 26.0001 -51 148.488 -51 299.513C-51 450.539 71.4413 573.027 222.41 573.027C337.097 573.027 435.235 502.405 475.856 402.262C486.156 406.198 497.382 408.34 509.07 408.34C534.126 408.34 556.924 398.441 573.705 382.349C578.913 383.912 584.41 384.78 590.139 384.78C603.853 384.78 616.409 379.918 626.188 371.871C633.942 393.926 654.947 409.729 679.655 409.729C698.692 409.729 715.531 400.352 725.831 385.938C733.353 389.643 741.802 391.727 750.771 391.727C763.559 391.727 775.421 387.443 784.911 380.323C791.739 383.217 799.261 384.838 807.13 384.838C807.593 384.838 807.999 384.838 808.461 384.838C790.003 413.723 779.298 448.108 779.298 484.924C779.298 587.73 862.565 671.029 965.332 671.029C1068.1 671.029 1151.37 587.73 1151.37 484.924C1151.37 477.514 1150.96 470.278 1150.09 463.1C1219.7 457.485 1274.39 399.194 1274.39 328.109C1274.39 327.357 1274.39 326.662 1274.39 325.91C1274.91 325.736 1275.43 325.62 1275.95 325.447C1275.72 328.63 1275.54 331.814 1275.54 335.056C1275.54 401.451 1329.36 455.286 1395.73 455.286C1428.25 455.286 1457.7 442.377 1479.34 421.364C1500.06 438.267 1526.44 448.339 1555.2 448.339C1621.57 448.339 1675.39 394.505 1675.39 328.109C1675.39 309.18 1670.99 291.294 1663.24 275.317C1666.88 274.101 1670.41 272.48 1673.65 270.57C1693.73 308.833 1733.89 334.998 1780.12 334.998C1846.49 334.998 1900.31 281.163 1900.31 214.768C1900.25 148.43 1846.49 94.5955 1780.12 94.5955Z" fill="#EFEFF3"/>
</svg>
